<?xml version="1.0" encoding="utf-8"?>
<svg xmlns="http://www.w3.org/2000/svg" xmlns:xlink="http://www.w3.org/1999/xlink" width="600" height="400" viewBox="0 0 2400 1600">
<defs>
  <clipPath id="clip670">
    <rect x="0" y="0" width="2400" height="1600"/>
  </clipPath>
</defs>
<path clip-path="url(#clip670)" d="M0 1600 L2400 1600 L2400 0 L0 0  Z" fill="#ffffff" fill-rule="evenodd" fill-opacity="1"/>
<defs>
  <clipPath id="clip671">
    <rect x="221" y="123" width="2132" height="1288"/>
  </clipPath>
</defs>
<path clip-path="url(#clip670)" d="M221.637 1410.9 L2352.76 1410.9 L2352.76 123.472 L221.637 123.472  Z" fill="#ffffff" fill-rule="evenodd" fill-opacity="1"/>
<polyline clip-path="url(#clip671)" style="stroke:#000000; stroke-linecap:round; stroke-linejoin:round; stroke-width:2; stroke-opacity:0.1; fill:none" points="281.952,1410.9 281.952,123.472 "/>
<polyline clip-path="url(#clip671)" style="stroke:#000000; stroke-linecap:round; stroke-linejoin:round; stroke-width:2; stroke-opacity:0.1; fill:none" points="784.574,1410.9 784.574,123.472 "/>
<polyline clip-path="url(#clip671)" style="stroke:#000000; stroke-linecap:round; stroke-linejoin:round; stroke-width:2; stroke-opacity:0.1; fill:none" points="1287.2,1410.9 1287.2,123.472 "/>
<polyline clip-path="url(#clip671)" style="stroke:#000000; stroke-linecap:round; stroke-linejoin:round; stroke-width:2; stroke-opacity:0.1; fill:none" points="1789.82,1410.9 1789.82,123.472 "/>
<polyline clip-path="url(#clip671)" style="stroke:#000000; stroke-linecap:round; stroke-linejoin:round; stroke-width:2; stroke-opacity:0.1; fill:none" points="2292.44,1410.9 2292.44,123.472 "/>
<polyline clip-path="url(#clip671)" style="stroke:#000000; stroke-linecap:round; stroke-linejoin:round; stroke-width:2; stroke-opacity:0.1; fill:none" points="221.637,1263.04 2352.76,1263.04 "/>
<polyline clip-path="url(#clip671)" style="stroke:#000000; stroke-linecap:round; stroke-linejoin:round; stroke-width:2; stroke-opacity:0.1; fill:none" points="221.637,797.739 2352.76,797.739 "/>
<polyline clip-path="url(#clip671)" style="stroke:#000000; stroke-linecap:round; stroke-linejoin:round; stroke-width:2; stroke-opacity:0.1; fill:none" points="221.637,332.434 2352.76,332.434 "/>
<polyline clip-path="url(#clip670)" style="stroke:#000000; stroke-linecap:round; stroke-linejoin:round; stroke-width:4; stroke-opacity:1; fill:none" points="221.637,1410.9 2352.76,1410.9 "/>
<polyline clip-path="url(#clip670)" style="stroke:#000000; stroke-linecap:round; stroke-linejoin:round; stroke-width:4; stroke-opacity:1; fill:none" points="281.952,1410.9 281.952,1392 "/>
<polyline clip-path="url(#clip670)" style="stroke:#000000; stroke-linecap:round; stroke-linejoin:round; stroke-width:4; stroke-opacity:1; fill:none" points="784.574,1410.9 784.574,1392 "/>
<polyline clip-path="url(#clip670)" style="stroke:#000000; stroke-linecap:round; stroke-linejoin:round; stroke-width:4; stroke-opacity:1; fill:none" points="1287.2,1410.9 1287.2,1392 "/>
<polyline clip-path="url(#clip670)" style="stroke:#000000; stroke-linecap:round; stroke-linejoin:round; stroke-width:4; stroke-opacity:1; fill:none" points="1789.82,1410.9 1789.82,1392 "/>
<polyline clip-path="url(#clip670)" style="stroke:#000000; stroke-linecap:round; stroke-linejoin:round; stroke-width:4; stroke-opacity:1; fill:none" points="2292.44,1410.9 2292.44,1392 "/>
<path clip-path="url(#clip670)" d="M246.935 1485.02 L254.573 1485.02 L254.573 1458.66 L246.263 1460.32 L246.263 1456.06 L254.527 1454.4 L259.203 1454.4 L259.203 1485.02 L266.842 1485.02 L266.842 1488.96 L246.935 1488.96 L246.935 1485.02 Z" fill="#000000" fill-rule="nonzero" fill-opacity="1" /><path clip-path="url(#clip670)" d="M286.286 1457.48 Q282.675 1457.48 280.846 1461.04 Q279.041 1464.58 279.041 1471.71 Q279.041 1478.82 280.846 1482.38 Q282.675 1485.92 286.286 1485.92 Q289.92 1485.92 291.726 1482.38 Q293.555 1478.82 293.555 1471.71 Q293.555 1464.58 291.726 1461.04 Q289.92 1457.48 286.286 1457.48 M286.286 1453.77 Q292.096 1453.77 295.152 1458.38 Q298.231 1462.96 298.231 1471.71 Q298.231 1480.44 295.152 1485.04 Q292.096 1489.63 286.286 1489.63 Q280.476 1489.63 277.397 1485.04 Q274.342 1480.44 274.342 1471.71 Q274.342 1462.96 277.397 1458.38 Q280.476 1453.77 286.286 1453.77 Z" fill="#000000" fill-rule="nonzero" fill-opacity="1" /><path clip-path="url(#clip670)" d="M307.935 1435.97 Q305.001 1435.97 303.516 1438.86 Q302.049 1441.74 302.049 1447.53 Q302.049 1453.31 303.516 1456.2 Q305.001 1459.08 307.935 1459.08 Q310.888 1459.08 312.355 1456.2 Q313.841 1453.31 313.841 1447.53 Q313.841 1441.74 312.355 1438.86 Q310.888 1435.97 307.935 1435.97 M307.935 1432.96 Q312.656 1432.96 315.139 1436.7 Q317.64 1440.43 317.64 1447.53 Q317.64 1454.62 315.139 1458.37 Q312.656 1462.09 307.935 1462.09 Q303.215 1462.09 300.713 1458.37 Q298.231 1454.62 298.231 1447.53 Q298.231 1440.43 300.713 1436.7 Q303.215 1432.96 307.935 1432.96 Z" fill="#000000" fill-rule="nonzero" fill-opacity="1" /><path clip-path="url(#clip670)" d="M750.902 1485.02 L758.541 1485.02 L758.541 1458.66 L750.23 1460.32 L750.23 1456.06 L758.494 1454.4 L763.17 1454.4 L763.17 1485.02 L770.809 1485.02 L770.809 1488.96 L750.902 1488.96 L750.902 1485.02 Z" fill="#000000" fill-rule="nonzero" fill-opacity="1" /><path clip-path="url(#clip670)" d="M790.253 1457.48 Q786.642 1457.48 784.814 1461.04 Q783.008 1464.58 783.008 1471.71 Q783.008 1478.82 784.814 1482.38 Q786.642 1485.92 790.253 1485.92 Q793.888 1485.92 795.693 1482.38 Q797.522 1478.82 797.522 1471.71 Q797.522 1464.58 795.693 1461.04 Q793.888 1457.48 790.253 1457.48 M790.253 1453.77 Q796.064 1453.77 799.119 1458.38 Q802.198 1462.96 802.198 1471.71 Q802.198 1480.44 799.119 1485.04 Q796.064 1489.63 790.253 1489.63 Q784.443 1489.63 781.365 1485.04 Q778.309 1480.44 778.309 1471.71 Q778.309 1462.96 781.365 1458.38 Q784.443 1453.77 790.253 1453.77 Z" fill="#000000" fill-rule="nonzero" fill-opacity="1" /><path clip-path="url(#clip670)" d="M802.743 1458.35 L808.95 1458.35 L808.95 1436.93 L802.198 1438.28 L802.198 1434.82 L808.912 1433.47 L812.711 1433.47 L812.711 1458.35 L818.918 1458.35 L818.918 1461.55 L802.743 1461.55 L802.743 1458.35 Z" fill="#000000" fill-rule="nonzero" fill-opacity="1" /><path clip-path="url(#clip670)" d="M1252.97 1485.02 L1260.61 1485.02 L1260.61 1458.66 L1252.3 1460.32 L1252.3 1456.06 L1260.56 1454.4 L1265.24 1454.4 L1265.24 1485.02 L1272.88 1485.02 L1272.88 1488.96 L1252.97 1488.96 L1252.97 1485.02 Z" fill="#000000" fill-rule="nonzero" fill-opacity="1" /><path clip-path="url(#clip670)" d="M1292.32 1457.48 Q1288.71 1457.48 1286.88 1461.04 Q1285.08 1464.58 1285.08 1471.71 Q1285.08 1478.82 1286.88 1482.38 Q1288.71 1485.92 1292.32 1485.92 Q1295.96 1485.92 1297.76 1482.38 Q1299.59 1478.82 1299.59 1471.71 Q1299.59 1464.58 1297.76 1461.04 Q1295.96 1457.48 1292.32 1457.48 M1292.32 1453.77 Q1298.13 1453.77 1301.19 1458.38 Q1304.27 1462.96 1304.27 1471.71 Q1304.27 1480.44 1301.19 1485.04 Q1298.13 1489.63 1292.32 1489.63 Q1286.51 1489.63 1283.43 1485.04 Q1280.38 1480.44 1280.38 1471.71 Q1280.38 1462.96 1283.43 1458.38 Q1286.51 1453.77 1292.32 1453.77 Z" fill="#000000" fill-rule="nonzero" fill-opacity="1" /><path clip-path="url(#clip670)" d="M1308.84 1458.35 L1322.1 1458.35 L1322.1 1461.55 L1304.27 1461.55 L1304.27 1458.35 Q1306.43 1456.11 1310.15 1452.35 Q1313.89 1448.57 1314.85 1447.48 Q1316.68 1445.43 1317.39 1444.02 Q1318.13 1442.59 1318.13 1441.22 Q1318.13 1438.98 1316.55 1437.57 Q1314.99 1436.16 1312.47 1436.16 Q1310.68 1436.16 1308.69 1436.78 Q1306.71 1437.4 1304.45 1438.66 L1304.45 1434.82 Q1306.75 1433.9 1308.74 1433.43 Q1310.74 1432.96 1312.39 1432.96 Q1316.75 1432.96 1319.35 1435.14 Q1321.94 1437.32 1321.94 1440.97 Q1321.94 1442.7 1321.29 1444.26 Q1320.65 1445.8 1318.94 1447.91 Q1318.47 1448.46 1315.94 1451.07 Q1313.42 1453.67 1308.84 1458.35 Z" fill="#000000" fill-rule="nonzero" fill-opacity="1" /><path clip-path="url(#clip670)" d="M1755.26 1485.02 L1762.9 1485.02 L1762.9 1458.66 L1754.59 1460.32 L1754.59 1456.06 L1762.86 1454.4 L1767.53 1454.4 L1767.53 1485.02 L1775.17 1485.02 L1775.17 1488.96 L1755.26 1488.96 L1755.26 1485.02 Z" fill="#000000" fill-rule="nonzero" fill-opacity="1" /><path clip-path="url(#clip670)" d="M1794.61 1457.48 Q1791 1457.48 1789.17 1461.04 Q1787.37 1464.58 1787.37 1471.71 Q1787.37 1478.82 1789.17 1482.38 Q1791 1485.92 1794.61 1485.92 Q1798.25 1485.92 1800.05 1482.38 Q1801.88 1478.82 1801.88 1471.71 Q1801.88 1464.58 1800.05 1461.04 Q1798.25 1457.48 1794.61 1457.48 M1794.61 1453.77 Q1800.42 1453.77 1803.48 1458.38 Q1806.56 1462.96 1806.56 1471.71 Q1806.56 1480.44 1803.48 1485.04 Q1800.42 1489.63 1794.61 1489.63 Q1788.8 1489.63 1785.73 1485.04 Q1782.67 1480.44 1782.67 1471.71 Q1782.67 1462.96 1785.73 1458.38 Q1788.8 1453.77 1794.61 1453.77 Z" fill="#000000" fill-rule="nonzero" fill-opacity="1" /><path clip-path="url(#clip670)" d="M1819.25 1446.41 Q1821.98 1446.99 1823.5 1448.83 Q1825.05 1450.68 1825.05 1453.38 Q1825.05 1457.54 1822.19 1459.82 Q1819.33 1462.09 1814.06 1462.09 Q1812.29 1462.09 1810.41 1461.73 Q1808.55 1461.4 1806.56 1460.7 L1806.56 1457.03 Q1808.14 1457.95 1810.02 1458.42 Q1811.9 1458.89 1813.95 1458.89 Q1817.52 1458.89 1819.39 1457.48 Q1821.27 1456.07 1821.27 1453.38 Q1821.27 1450.9 1819.52 1449.51 Q1817.79 1448.1 1814.68 1448.1 L1811.41 1448.1 L1811.41 1444.98 L1814.83 1444.98 Q1817.64 1444.98 1819.12 1443.87 Q1820.61 1442.74 1820.61 1440.63 Q1820.61 1438.47 1819.07 1437.32 Q1817.54 1436.16 1814.68 1436.16 Q1813.12 1436.16 1811.34 1436.49 Q1809.55 1436.83 1807.4 1437.55 L1807.4 1434.16 Q1809.57 1433.56 1811.45 1433.26 Q1813.35 1432.96 1815.02 1432.96 Q1819.35 1432.96 1821.87 1434.93 Q1824.39 1436.89 1824.39 1440.24 Q1824.39 1442.57 1823.05 1444.19 Q1821.72 1445.79 1819.25 1446.41 Z" fill="#000000" fill-rule="nonzero" fill-opacity="1" /><path clip-path="url(#clip670)" d="M2256.9 1485.02 L2264.54 1485.02 L2264.54 1458.66 L2256.23 1460.32 L2256.23 1456.06 L2264.49 1454.4 L2269.17 1454.4 L2269.17 1485.02 L2276.8 1485.02 L2276.8 1488.96 L2256.9 1488.96 L2256.9 1485.02 Z" fill="#000000" fill-rule="nonzero" fill-opacity="1" /><path clip-path="url(#clip670)" d="M2296.25 1457.48 Q2292.64 1457.48 2290.81 1461.04 Q2289 1464.58 2289 1471.71 Q2289 1478.82 2290.81 1482.38 Q2292.64 1485.92 2296.25 1485.92 Q2299.88 1485.92 2301.69 1482.38 Q2303.52 1478.82 2303.52 1471.71 Q2303.52 1464.58 2301.69 1461.04 Q2299.88 1457.48 2296.25 1457.48 M2296.25 1453.77 Q2302.06 1453.77 2305.11 1458.38 Q2308.19 1462.96 2308.19 1471.71 Q2308.19 1480.44 2305.11 1485.04 Q2302.06 1489.63 2296.25 1489.63 Q2290.44 1489.63 2287.36 1485.04 Q2284.3 1480.44 2284.3 1471.71 Q2284.3 1462.96 2287.36 1458.38 Q2290.44 1453.77 2296.25 1453.77 Z" fill="#000000" fill-rule="nonzero" fill-opacity="1" /><path clip-path="url(#clip670)" d="M2320.87 1436.78 L2311.28 1451.77 L2320.87 1451.77 L2320.87 1436.78 M2319.87 1433.47 L2324.65 1433.47 L2324.65 1451.77 L2328.66 1451.77 L2328.66 1454.93 L2324.65 1454.93 L2324.65 1461.55 L2320.87 1461.55 L2320.87 1454.93 L2308.19 1454.93 L2308.19 1451.26 L2319.87 1433.47 Z" fill="#000000" fill-rule="nonzero" fill-opacity="1" /><path clip-path="url(#clip670)" d="M974.959 1533 L966.238 1556.65 L983.711 1556.65 L974.959 1533 M971.33 1526.67 L978.619 1526.67 L996.729 1574.19 L990.045 1574.19 L985.717 1562 L964.296 1562 L959.967 1574.19 L953.188 1574.19 L971.33 1526.67 Z" fill="#000000" fill-rule="nonzero" fill-opacity="1" /><path clip-path="url(#clip670)" d="M995.393 1538.54 L1001.6 1538.54 L1012.74 1568.46 L1023.88 1538.54 L1030.09 1538.54 L1016.72 1574.19 L1008.76 1574.19 L995.393 1538.54 Z" fill="#000000" fill-rule="nonzero" fill-opacity="1" /><path clip-path="url(#clip670)" d="M1068.66 1554.9 L1068.66 1557.76 L1041.73 1557.76 Q1042.12 1563.81 1045.36 1566.99 Q1048.64 1570.14 1054.47 1570.14 Q1057.84 1570.14 1060.99 1569.32 Q1064.17 1568.49 1067.29 1566.83 L1067.29 1572.37 Q1064.14 1573.71 1060.83 1574.41 Q1057.52 1575.11 1054.12 1575.11 Q1045.59 1575.11 1040.59 1570.14 Q1035.62 1565.18 1035.62 1556.71 Q1035.62 1547.96 1040.33 1542.83 Q1045.08 1537.68 1053.1 1537.68 Q1060.29 1537.68 1064.46 1542.33 Q1068.66 1546.94 1068.66 1554.9 M1062.81 1553.18 Q1062.74 1548.37 1060.1 1545.51 Q1057.49 1542.64 1053.16 1542.64 Q1048.26 1542.64 1045.3 1545.41 Q1042.37 1548.18 1041.93 1553.21 L1062.81 1553.18 Z" fill="#000000" fill-rule="nonzero" fill-opacity="1" /><path clip-path="url(#clip670)" d="M1098.93 1544.01 Q1097.94 1543.44 1096.77 1543.18 Q1095.62 1542.9 1094.22 1542.9 Q1089.25 1542.9 1086.58 1546.14 Q1083.94 1549.36 1083.94 1555.41 L1083.94 1574.19 L1078.05 1574.19 L1078.05 1538.54 L1083.94 1538.54 L1083.94 1544.08 Q1085.79 1540.83 1088.75 1539.27 Q1091.71 1537.68 1095.94 1537.68 Q1096.54 1537.68 1097.28 1537.77 Q1098.01 1537.84 1098.9 1538 L1098.93 1544.01 Z" fill="#000000" fill-rule="nonzero" fill-opacity="1" /><path clip-path="url(#clip670)" d="M1121.27 1556.27 Q1114.18 1556.27 1111.44 1557.89 Q1108.7 1559.51 1108.7 1563.43 Q1108.7 1566.55 1110.74 1568.39 Q1112.81 1570.21 1116.34 1570.21 Q1121.21 1570.21 1124.14 1566.77 Q1127.1 1563.3 1127.1 1557.57 L1127.1 1556.27 L1121.27 1556.27 M1132.96 1553.85 L1132.96 1574.19 L1127.1 1574.19 L1127.1 1568.77 Q1125.09 1572.02 1122.1 1573.58 Q1119.11 1575.11 1114.78 1575.11 Q1109.31 1575.11 1106.06 1572.05 Q1102.85 1568.97 1102.85 1563.81 Q1102.85 1557.79 1106.86 1554.74 Q1110.9 1551.68 1118.89 1551.68 L1127.1 1551.68 L1127.1 1551.11 Q1127.1 1547.07 1124.43 1544.87 Q1121.78 1542.64 1116.98 1542.64 Q1113.92 1542.64 1111.03 1543.38 Q1108.13 1544.11 1105.46 1545.57 L1105.46 1540.16 Q1108.67 1538.92 1111.69 1538.31 Q1114.72 1537.68 1117.58 1537.68 Q1125.32 1537.68 1129.14 1541.69 Q1132.96 1545.7 1132.96 1553.85 Z" fill="#000000" fill-rule="nonzero" fill-opacity="1" /><path clip-path="url(#clip670)" d="M1168.48 1555.95 Q1168.48 1549.58 1165.83 1546.08 Q1163.22 1542.58 1158.48 1542.58 Q1153.77 1542.58 1151.13 1546.08 Q1148.52 1549.58 1148.52 1555.95 Q1148.52 1562.28 1151.13 1565.78 Q1153.77 1569.28 1158.48 1569.28 Q1163.22 1569.28 1165.83 1565.78 Q1168.48 1562.28 1168.48 1555.95 M1174.33 1569.76 Q1174.33 1578.86 1170.29 1583.29 Q1166.25 1587.74 1157.91 1587.74 Q1154.82 1587.74 1152.08 1587.27 Q1149.35 1586.82 1146.77 1585.87 L1146.77 1580.17 Q1149.35 1581.57 1151.86 1582.24 Q1154.38 1582.91 1156.99 1582.91 Q1162.75 1582.91 1165.61 1579.88 Q1168.48 1576.89 1168.48 1570.81 L1168.48 1567.92 Q1166.66 1571.07 1163.83 1572.63 Q1161 1574.19 1157.05 1574.19 Q1150.49 1574.19 1146.48 1569.19 Q1142.47 1564.19 1142.47 1555.95 Q1142.47 1547.67 1146.48 1542.68 Q1150.49 1537.68 1157.05 1537.68 Q1161 1537.68 1163.83 1539.24 Q1166.66 1540.8 1168.48 1543.95 L1168.48 1538.54 L1174.33 1538.54 L1174.33 1569.76 Z" fill="#000000" fill-rule="nonzero" fill-opacity="1" /><path clip-path="url(#clip670)" d="M1186.4 1538.54 L1192.25 1538.54 L1192.25 1574.19 L1186.4 1574.19 L1186.4 1538.54 M1186.4 1524.66 L1192.25 1524.66 L1192.25 1532.08 L1186.4 1532.08 L1186.4 1524.66 Z" fill="#000000" fill-rule="nonzero" fill-opacity="1" /><path clip-path="url(#clip670)" d="M1234.14 1552.67 L1234.14 1574.19 L1228.28 1574.19 L1228.28 1552.86 Q1228.28 1547.8 1226.31 1545.29 Q1224.34 1542.77 1220.39 1542.77 Q1215.65 1542.77 1212.91 1545.79 Q1210.17 1548.82 1210.17 1554.04 L1210.17 1574.19 L1204.28 1574.19 L1204.28 1538.54 L1210.17 1538.54 L1210.17 1544.08 Q1212.27 1540.86 1215.1 1539.27 Q1217.97 1537.68 1221.69 1537.68 Q1227.84 1537.68 1230.99 1541.5 Q1234.14 1545.29 1234.14 1552.67 Z" fill="#000000" fill-rule="nonzero" fill-opacity="1" /><path clip-path="url(#clip670)" d="M1269.28 1555.95 Q1269.28 1549.58 1266.64 1546.08 Q1264.03 1542.58 1259.28 1542.58 Q1254.57 1542.58 1251.93 1546.08 Q1249.32 1549.58 1249.32 1555.95 Q1249.32 1562.28 1251.93 1565.78 Q1254.57 1569.28 1259.28 1569.28 Q1264.03 1569.28 1266.64 1565.78 Q1269.28 1562.28 1269.28 1555.95 M1275.13 1569.76 Q1275.13 1578.86 1271.09 1583.29 Q1267.05 1587.74 1258.71 1587.74 Q1255.62 1587.74 1252.89 1587.27 Q1250.15 1586.82 1247.57 1585.87 L1247.57 1580.17 Q1250.15 1581.57 1252.66 1582.24 Q1255.18 1582.91 1257.79 1582.91 Q1263.55 1582.91 1266.41 1579.88 Q1269.28 1576.89 1269.28 1570.81 L1269.28 1567.92 Q1267.46 1571.07 1264.63 1572.63 Q1261.8 1574.19 1257.85 1574.19 Q1251.29 1574.19 1247.28 1569.19 Q1243.27 1564.19 1243.27 1555.95 Q1243.27 1547.67 1247.28 1542.68 Q1251.29 1537.68 1257.85 1537.68 Q1261.8 1537.68 1264.63 1539.24 Q1267.46 1540.8 1269.28 1543.95 L1269.28 1538.54 L1275.13 1538.54 L1275.13 1569.76 Z" fill="#000000" fill-rule="nonzero" fill-opacity="1" /><path clip-path="url(#clip670)" d="M1301.58 1526.67 L1341.78 1526.67 L1341.78 1532.08 L1324.91 1532.08 L1324.91 1574.19 L1318.45 1574.19 L1318.45 1532.08 L1301.58 1532.08 L1301.58 1526.67 Z" fill="#000000" fill-rule="nonzero" fill-opacity="1" /><path clip-path="url(#clip670)" d="M1345.73 1538.54 L1351.59 1538.54 L1351.59 1574.19 L1345.73 1574.19 L1345.73 1538.54 M1345.73 1524.66 L1351.59 1524.66 L1351.59 1532.08 L1345.73 1532.08 L1345.73 1524.66 Z" fill="#000000" fill-rule="nonzero" fill-opacity="1" /><path clip-path="url(#clip670)" d="M1391.59 1545.38 Q1393.79 1541.43 1396.85 1539.56 Q1399.9 1537.68 1404.04 1537.68 Q1409.61 1537.68 1412.63 1541.59 Q1415.66 1545.48 1415.66 1552.67 L1415.66 1574.19 L1409.77 1574.19 L1409.77 1552.86 Q1409.77 1547.74 1407.95 1545.25 Q1406.14 1542.77 1402.42 1542.77 Q1397.86 1542.77 1395.22 1545.79 Q1392.58 1548.82 1392.58 1554.04 L1392.58 1574.19 L1386.69 1574.19 L1386.69 1552.86 Q1386.69 1547.7 1384.88 1545.25 Q1383.06 1542.77 1379.28 1542.77 Q1374.79 1542.77 1372.15 1545.83 Q1369.51 1548.85 1369.51 1554.04 L1369.51 1574.19 L1363.62 1574.19 L1363.62 1538.54 L1369.51 1538.54 L1369.51 1544.08 Q1371.51 1540.8 1374.31 1539.24 Q1377.11 1537.68 1380.96 1537.68 Q1384.85 1537.68 1387.55 1539.65 Q1390.29 1541.62 1391.59 1545.38 Z" fill="#000000" fill-rule="nonzero" fill-opacity="1" /><path clip-path="url(#clip670)" d="M1457.83 1554.9 L1457.83 1557.76 L1430.9 1557.76 Q1431.28 1563.81 1434.53 1566.99 Q1437.81 1570.14 1443.63 1570.14 Q1447.01 1570.14 1450.16 1569.32 Q1453.34 1568.49 1456.46 1566.83 L1456.46 1572.37 Q1453.31 1573.71 1450 1574.41 Q1446.69 1575.11 1443.28 1575.11 Q1434.75 1575.11 1429.76 1570.14 Q1424.79 1565.18 1424.79 1556.71 Q1424.79 1547.96 1429.5 1542.83 Q1434.24 1537.68 1442.27 1537.68 Q1449.46 1537.68 1453.63 1542.33 Q1457.83 1546.94 1457.83 1554.9 M1451.97 1553.18 Q1451.91 1548.37 1449.27 1545.51 Q1446.66 1542.64 1442.33 1542.64 Q1437.43 1542.64 1434.47 1545.41 Q1431.54 1548.18 1431.09 1553.21 L1451.97 1553.18 Z" fill="#000000" fill-rule="nonzero" fill-opacity="1" /><path clip-path="url(#clip670)" d="M1505.64 1567.69 Q1506.78 1569.22 1510.22 1569.22 L1513.05 1569.22 L1513.05 1574.19 L1509.52 1574.19 Q1503.79 1574.19 1501.18 1571.13 Q1498.57 1568.01 1498.57 1561.26 L1498.57 1544.39 L1485.2 1544.39 L1485.2 1538.54 L1518.08 1538.54 L1518.08 1544.39 L1504.55 1544.39 L1504.55 1561.61 Q1504.55 1566.23 1505.64 1567.69 Z" fill="#000000" fill-rule="nonzero" fill-opacity="1" /><path clip-path="url(#clip670)" d="M1562.2 1524.72 Q1557.93 1532.04 1555.86 1539.21 Q1553.79 1546.37 1553.79 1553.72 Q1553.79 1561.07 1555.86 1568.3 Q1557.96 1575.49 1562.2 1582.78 L1557.1 1582.78 Q1552.33 1575.3 1549.94 1568.07 Q1547.59 1560.85 1547.59 1553.72 Q1547.59 1546.62 1549.94 1539.43 Q1552.3 1532.24 1557.1 1524.72 L1562.2 1524.72 Z" fill="#000000" fill-rule="nonzero" fill-opacity="1" /><path clip-path="url(#clip670)" d="M1596.28 1539.59 L1596.28 1545.13 Q1593.8 1543.85 1591.13 1543.22 Q1588.45 1542.58 1585.59 1542.58 Q1581.23 1542.58 1579.03 1543.92 Q1576.87 1545.25 1576.87 1547.93 Q1576.87 1549.96 1578.43 1551.14 Q1579.99 1552.29 1584.7 1553.34 L1586.7 1553.78 Q1592.94 1555.12 1595.55 1557.57 Q1598.19 1559.99 1598.19 1564.35 Q1598.19 1569.32 1594.25 1572.21 Q1590.33 1575.11 1583.46 1575.11 Q1580.59 1575.11 1577.47 1574.54 Q1574.39 1573.99 1570.95 1572.88 L1570.95 1566.83 Q1574.19 1568.52 1577.35 1569.38 Q1580.5 1570.21 1583.58 1570.21 Q1587.72 1570.21 1589.95 1568.81 Q1592.18 1567.37 1592.18 1564.8 Q1592.18 1562.41 1590.55 1561.14 Q1588.96 1559.86 1583.52 1558.68 L1581.48 1558.21 Q1576.04 1557.06 1573.62 1554.71 Q1571.2 1552.32 1571.2 1548.18 Q1571.2 1543.15 1574.77 1540.42 Q1578.33 1537.68 1584.89 1537.68 Q1588.14 1537.68 1591 1538.16 Q1593.86 1538.63 1596.28 1539.59 Z" fill="#000000" fill-rule="nonzero" fill-opacity="1" /><path clip-path="url(#clip670)" d="M1606.6 1524.72 L1611.69 1524.72 Q1616.46 1532.24 1618.82 1539.43 Q1621.21 1546.62 1621.21 1553.72 Q1621.21 1560.85 1618.82 1568.07 Q1616.46 1575.3 1611.69 1582.78 L1606.6 1582.78 Q1610.83 1575.49 1612.9 1568.3 Q1615 1561.07 1615 1553.72 Q1615 1546.37 1612.9 1539.21 Q1610.83 1532.04 1606.6 1524.72 Z" fill="#000000" fill-rule="nonzero" fill-opacity="1" /><polyline clip-path="url(#clip670)" style="stroke:#000000; stroke-linecap:round; stroke-linejoin:round; stroke-width:4; stroke-opacity:1; fill:none" points="221.637,1410.9 221.637,123.472 "/>
<polyline clip-path="url(#clip670)" style="stroke:#000000; stroke-linecap:round; stroke-linejoin:round; stroke-width:4; stroke-opacity:1; fill:none" points="221.637,1263.04 240.535,1263.04 "/>
<polyline clip-path="url(#clip670)" style="stroke:#000000; stroke-linecap:round; stroke-linejoin:round; stroke-width:4; stroke-opacity:1; fill:none" points="221.637,797.739 240.535,797.739 "/>
<polyline clip-path="url(#clip670)" style="stroke:#000000; stroke-linecap:round; stroke-linejoin:round; stroke-width:4; stroke-opacity:1; fill:none" points="221.637,332.434 240.535,332.434 "/>
<path clip-path="url(#clip670)" d="M114.931 1282.84 L122.57 1282.84 L122.57 1256.47 L114.26 1258.14 L114.26 1253.88 L122.524 1252.21 L127.2 1252.21 L127.2 1282.84 L134.839 1282.84 L134.839 1286.77 L114.931 1286.77 L114.931 1282.84 Z" fill="#000000" fill-rule="nonzero" fill-opacity="1" /><path clip-path="url(#clip670)" d="M154.283 1255.29 Q150.672 1255.29 148.843 1258.86 Q147.038 1262.4 147.038 1269.53 Q147.038 1276.63 148.843 1280.2 Q150.672 1283.74 154.283 1283.74 Q157.917 1283.74 159.723 1280.2 Q161.552 1276.63 161.552 1269.53 Q161.552 1262.4 159.723 1258.86 Q157.917 1255.29 154.283 1255.29 M154.283 1251.59 Q160.093 1251.59 163.149 1256.19 Q166.227 1260.78 166.227 1269.53 Q166.227 1278.25 163.149 1282.86 Q160.093 1287.44 154.283 1287.44 Q148.473 1287.44 145.394 1282.86 Q142.339 1278.25 142.339 1269.53 Q142.339 1260.78 145.394 1256.19 Q148.473 1251.59 154.283 1251.59 Z" fill="#000000" fill-rule="nonzero" fill-opacity="1" /><path clip-path="url(#clip670)" d="M175.932 1233.78 Q172.998 1233.78 171.512 1236.68 Q170.045 1239.56 170.045 1245.35 Q170.045 1251.12 171.512 1254.02 Q172.998 1256.9 175.932 1256.9 Q178.885 1256.9 180.352 1254.02 Q181.838 1251.12 181.838 1245.35 Q181.838 1239.56 180.352 1236.68 Q178.885 1233.78 175.932 1233.78 M175.932 1230.77 Q180.653 1230.77 183.136 1234.52 Q185.637 1238.24 185.637 1245.35 Q185.637 1252.44 183.136 1256.18 Q180.653 1259.91 175.932 1259.91 Q171.212 1259.91 168.71 1256.18 Q166.227 1252.44 166.227 1245.35 Q166.227 1238.24 168.71 1234.52 Q171.212 1230.77 175.932 1230.77 Z" fill="#000000" fill-rule="nonzero" fill-opacity="1" /><path clip-path="url(#clip670)" d="M117.621 817.531 L125.26 817.531 L125.26 791.166 L116.95 792.832 L116.95 788.573 L125.214 786.907 L129.889 786.907 L129.889 817.531 L137.528 817.531 L137.528 821.467 L117.621 821.467 L117.621 817.531 Z" fill="#000000" fill-rule="nonzero" fill-opacity="1" /><path clip-path="url(#clip670)" d="M156.973 789.985 Q153.362 789.985 151.533 793.55 Q149.727 797.092 149.727 804.221 Q149.727 811.328 151.533 814.893 Q153.362 818.434 156.973 818.434 Q160.607 818.434 162.412 814.893 Q164.241 811.328 164.241 804.221 Q164.241 797.092 162.412 793.55 Q160.607 789.985 156.973 789.985 M156.973 786.282 Q162.783 786.282 165.838 790.888 Q168.917 795.471 168.917 804.221 Q168.917 812.948 165.838 817.555 Q162.783 822.138 156.973 822.138 Q151.162 822.138 148.084 817.555 Q145.028 812.948 145.028 804.221 Q145.028 795.471 148.084 790.888 Q151.162 786.282 156.973 786.282 Z" fill="#000000" fill-rule="nonzero" fill-opacity="1" /><path clip-path="url(#clip670)" d="M169.462 790.859 L175.669 790.859 L175.669 769.437 L168.917 770.791 L168.917 767.33 L175.631 765.976 L179.431 765.976 L179.431 790.859 L185.637 790.859 L185.637 794.056 L169.462 794.056 L169.462 790.859 Z" fill="#000000" fill-rule="nonzero" fill-opacity="1" /><path clip-path="url(#clip670)" d="M116.511 352.226 L124.15 352.226 L124.15 325.86 L115.84 327.527 L115.84 323.268 L124.104 321.601 L128.78 321.601 L128.78 352.226 L136.419 352.226 L136.419 356.161 L116.511 356.161 L116.511 352.226 Z" fill="#000000" fill-rule="nonzero" fill-opacity="1" /><path clip-path="url(#clip670)" d="M155.863 324.68 Q152.252 324.68 150.423 328.245 Q148.618 331.786 148.618 338.916 Q148.618 346.022 150.423 349.587 Q152.252 353.129 155.863 353.129 Q159.497 353.129 161.303 349.587 Q163.131 346.022 163.131 338.916 Q163.131 331.786 161.303 328.245 Q159.497 324.68 155.863 324.68 M155.863 320.976 Q161.673 320.976 164.729 325.583 Q167.807 330.166 167.807 338.916 Q167.807 347.643 164.729 352.249 Q161.673 356.832 155.863 356.832 Q150.053 356.832 146.974 352.249 Q143.919 347.643 143.919 338.916 Q143.919 330.166 146.974 325.583 Q150.053 320.976 155.863 320.976 Z" fill="#000000" fill-rule="nonzero" fill-opacity="1" /><path clip-path="url(#clip670)" d="M172.378 325.553 L185.637 325.553 L185.637 328.751 L167.807 328.751 L167.807 325.553 Q169.97 323.315 173.694 319.554 Q177.437 315.773 178.396 314.683 Q180.22 312.633 180.935 311.222 Q181.669 309.793 181.669 308.42 Q181.669 306.181 180.089 304.771 Q178.528 303.36 176.008 303.36 Q174.221 303.36 172.227 303.981 Q170.252 304.602 167.995 305.862 L167.995 302.025 Q170.29 301.103 172.284 300.633 Q174.277 300.163 175.932 300.163 Q180.296 300.163 182.891 302.345 Q185.487 304.526 185.487 308.175 Q185.487 309.905 184.828 311.466 Q184.189 313.009 182.477 315.115 Q182.007 315.661 179.487 318.275 Q176.967 320.87 172.378 325.553 Z" fill="#000000" fill-rule="nonzero" fill-opacity="1" /><path clip-path="url(#clip670)" d="M58.5933 1180.68 L58.5933 1170.18 L22.3406 1170.18 L24.6323 1181.61 L18.7758 1181.61 L16.4842 1170.25 L16.4842 1163.82 L58.5933 1163.82 L58.5933 1153.31 L64.0042 1153.31 L64.0042 1180.68 L58.5933 1180.68 Z" fill="#000000" fill-rule="nonzero" fill-opacity="1" /><path clip-path="url(#clip670)" d="M33.0032 1127.34 Q33.0032 1132.18 36.5043 1134.79 Q40.1646 1137.53 46.212 1137.53 Q52.6095 1137.53 56.3017 1134.82 Q59.9619 1132.08 59.9619 1127.34 Q59.9619 1122.66 56.2698 1119.92 Q52.5777 1117.19 46.212 1117.19 Q40.3874 1117.19 36.5043 1119.92 Q33.0032 1122.44 33.0032 1127.34 M28.3562 1127.34 L28.3562 1107.89 L34.2127 1107.89 L34.2127 1114.45 Q39.1779 1110.98 46.212 1110.98 Q54.9649 1110.98 59.9301 1115.34 Q64.9272 1119.7 64.9272 1127.34 Q64.9272 1135.01 59.9301 1139.34 Q54.9649 1143.7 46.212 1143.7 Q37.3955 1143.7 32.4621 1139.34 Q28.3562 1135.74 28.3562 1127.34 Z" fill="#000000" fill-rule="nonzero" fill-opacity="1" /><path clip-path="url(#clip670)" d="M42.4881 1049.49 L64.0042 1049.49 L64.0042 1055.34 L42.679 1055.34 Q37.6183 1055.34 35.1038 1057.32 Q32.5894 1059.29 32.5894 1063.24 Q32.5894 1067.98 35.6131 1070.72 Q38.6368 1073.45 43.8567 1073.45 L64.0042 1073.45 L64.0042 1079.34 L14.479 1079.34 L14.479 1073.45 L33.8944 1073.45 Q30.6797 1071.35 29.0883 1068.52 Q27.4968 1065.66 27.4968 1061.93 Q27.4968 1055.79 31.3163 1052.64 Q35.1038 1049.49 42.4881 1049.49 Z" fill="#000000" fill-rule="nonzero" fill-opacity="1" /><path clip-path="url(#clip670)" d="M32.4621 1023.99 Q32.4621 1028.7 36.1542 1031.44 Q39.8145 1034.18 46.212 1034.18 Q52.6095 1034.18 56.3017 1031.47 Q59.9619 1028.74 59.9619 1023.99 Q59.9619 1019.31 56.2698 1016.58 Q52.5777 1013.84 46.212 1013.84 Q39.8781 1013.84 36.186 1016.58 Q32.4621 1019.31 32.4621 1023.99 M27.4968 1023.99 Q27.4968 1016.35 32.4621 1011.99 Q37.4273 1007.63 46.212 1007.63 Q54.9649 1007.63 59.9619 1011.99 Q64.9272 1016.35 64.9272 1023.99 Q64.9272 1031.66 59.9619 1036.02 Q54.9649 1040.35 46.212 1040.35 Q37.4273 1040.35 32.4621 1036.02 Q27.4968 1031.66 27.4968 1023.99 Z" fill="#000000" fill-rule="nonzero" fill-opacity="1" /><path clip-path="url(#clip670)" d="M14.479 997.925 L14.479 992.069 L64.0042 992.069 L64.0042 997.925 L14.479 997.925 Z" fill="#000000" fill-rule="nonzero" fill-opacity="1" /><path clip-path="url(#clip670)" d="M33.7671 956.357 L14.479 956.357 L14.479 950.501 L64.0042 950.501 L64.0042 956.357 L58.657 956.357 Q61.8398 958.203 63.3994 961.036 Q64.9272 963.837 64.9272 967.784 Q64.9272 974.245 59.771 978.319 Q54.6147 982.361 46.212 982.361 Q37.8093 982.361 32.6531 978.319 Q27.4968 974.245 27.4968 967.784 Q27.4968 963.837 29.0564 961.036 Q30.5842 958.203 33.7671 956.357 M46.212 976.314 Q52.6732 976.314 56.3653 973.672 Q60.0256 970.998 60.0256 966.351 Q60.0256 961.704 56.3653 959.031 Q52.6732 956.357 46.212 956.357 Q39.7508 956.357 36.0905 959.031 Q32.3984 961.704 32.3984 966.351 Q32.3984 970.998 36.0905 973.672 Q39.7508 976.314 46.212 976.314 Z" fill="#000000" fill-rule="nonzero" fill-opacity="1" /><path clip-path="url(#clip670)" d="M32.4621 924.624 Q32.4621 929.335 36.1542 932.072 Q39.8145 934.809 46.212 934.809 Q52.6095 934.809 56.3017 932.104 Q59.9619 929.367 59.9619 924.624 Q59.9619 919.945 56.2698 917.208 Q52.5777 914.471 46.212 914.471 Q39.8781 914.471 36.186 917.208 Q32.4621 919.945 32.4621 924.624 M27.4968 924.624 Q27.4968 916.985 32.4621 912.625 Q37.4273 908.264 46.212 908.264 Q54.9649 908.264 59.9619 912.625 Q64.9272 916.985 64.9272 924.624 Q64.9272 932.295 59.9619 936.655 Q54.9649 940.984 46.212 940.984 Q37.4273 940.984 32.4621 936.655 Q27.4968 932.295 27.4968 924.624 Z" fill="#000000" fill-rule="nonzero" fill-opacity="1" /><path clip-path="url(#clip670)" d="M28.3562 902.758 L28.3562 896.551 L58.275 885.411 L28.3562 874.271 L28.3562 868.065 L64.0042 881.433 L64.0042 889.39 L28.3562 902.758 Z" fill="#000000" fill-rule="nonzero" fill-opacity="1" /><path clip-path="url(#clip670)" d="M44.7161 829.489 L47.5806 829.489 L47.5806 856.416 Q53.6281 856.034 56.8109 852.787 Q59.9619 849.509 59.9619 843.684 Q59.9619 840.31 59.1344 837.159 Q58.3069 833.977 56.6518 830.857 L62.1899 830.857 Q63.5267 834.008 64.227 837.319 Q64.9272 840.629 64.9272 844.034 Q64.9272 852.564 59.9619 857.562 Q54.9967 862.527 46.5303 862.527 Q37.7774 862.527 32.6531 857.816 Q27.4968 853.074 27.4968 845.053 Q27.4968 837.86 32.1438 833.69 Q36.7589 829.489 44.7161 829.489 M42.9973 835.345 Q38.1912 835.409 35.3266 838.051 Q32.4621 840.661 32.4621 844.989 Q32.4621 849.891 35.2312 852.851 Q38.0002 855.779 43.0292 856.225 L42.9973 835.345 Z" fill="#000000" fill-rule="nonzero" fill-opacity="1" /><path clip-path="url(#clip670)" d="M33.8307 799.22 Q33.2578 800.206 33.0032 801.384 Q32.7167 802.53 32.7167 803.93 Q32.7167 808.896 35.9632 811.569 Q39.1779 814.211 45.2253 814.211 L64.0042 814.211 L64.0042 820.099 L28.3562 820.099 L28.3562 814.211 L33.8944 814.211 Q30.6479 812.365 29.0883 809.405 Q27.4968 806.445 27.4968 802.212 Q27.4968 801.607 27.5923 800.875 Q27.656 800.143 27.8151 799.252 L33.8307 799.22 Z" fill="#000000" fill-rule="nonzero" fill-opacity="1" /><path clip-path="url(#clip670)" d="M18.2347 766.564 L28.3562 766.564 L28.3562 754.501 L32.9077 754.501 L32.9077 766.564 L52.2594 766.564 Q56.6199 766.564 57.8613 765.386 Q59.1026 764.177 59.1026 760.516 L59.1026 754.501 L64.0042 754.501 L64.0042 760.516 Q64.0042 767.296 61.4897 769.874 Q58.9434 772.452 52.2594 772.452 L32.9077 772.452 L32.9077 776.749 L28.3562 776.749 L28.3562 772.452 L18.2347 772.452 L18.2347 766.564 Z" fill="#000000" fill-rule="nonzero" fill-opacity="1" /><path clip-path="url(#clip670)" d="M28.3562 746.798 L28.3562 740.942 L64.0042 740.942 L64.0042 746.798 L28.3562 746.798 M14.479 746.798 L14.479 740.942 L21.895 740.942 L21.895 746.798 L14.479 746.798 Z" fill="#000000" fill-rule="nonzero" fill-opacity="1" /><path clip-path="url(#clip670)" d="M35.1993 700.933 Q31.2526 698.737 29.3747 695.682 Q27.4968 692.626 27.4968 688.488 Q27.4968 682.918 31.4117 679.895 Q35.2948 676.871 42.4881 676.871 L64.0042 676.871 L64.0042 682.759 L42.679 682.759 Q37.5546 682.759 35.072 684.573 Q32.5894 686.388 32.5894 690.112 Q32.5894 694.663 35.6131 697.305 Q38.6368 699.947 43.8567 699.947 L64.0042 699.947 L64.0042 705.835 L42.679 705.835 Q37.5228 705.835 35.072 707.649 Q32.5894 709.463 32.5894 713.251 Q32.5894 717.739 35.6449 720.381 Q38.6686 723.022 43.8567 723.022 L64.0042 723.022 L64.0042 728.911 L28.3562 728.911 L28.3562 723.022 L33.8944 723.022 Q30.616 721.017 29.0564 718.216 Q27.4968 715.415 27.4968 711.564 Q27.4968 707.681 29.4702 704.976 Q31.4436 702.238 35.1993 700.933 Z" fill="#000000" fill-rule="nonzero" fill-opacity="1" /><path clip-path="url(#clip670)" d="M44.7161 634.698 L47.5806 634.698 L47.5806 661.625 Q53.6281 661.243 56.8109 657.997 Q59.9619 654.718 59.9619 648.894 Q59.9619 645.52 59.1344 642.369 Q58.3069 639.186 56.6518 636.067 L62.1899 636.067 Q63.5267 639.218 64.227 642.528 Q64.9272 645.838 64.9272 649.244 Q64.9272 657.774 59.9619 662.771 Q54.9967 667.736 46.5303 667.736 Q37.7774 667.736 32.6531 663.026 Q27.4968 658.283 27.4968 650.262 Q27.4968 643.069 32.1438 638.899 Q36.7589 634.698 44.7161 634.698 M42.9973 640.555 Q38.1912 640.618 35.3266 643.26 Q32.4621 645.87 32.4621 650.199 Q32.4621 655.1 35.2312 658.06 Q38.0002 660.988 43.0292 661.434 L42.9973 640.555 Z" fill="#000000" fill-rule="nonzero" fill-opacity="1" /><path clip-path="url(#clip670)" d="M44.7161 573.874 L47.5806 573.874 L47.5806 600.801 Q53.6281 600.419 56.8109 597.172 Q59.9619 593.894 59.9619 588.069 Q59.9619 584.695 59.1344 581.544 Q58.3069 578.362 56.6518 575.242 L62.1899 575.242 Q63.5267 578.393 64.227 581.704 Q64.9272 585.014 64.9272 588.419 Q64.9272 596.949 59.9619 601.947 Q54.9967 606.912 46.5303 606.912 Q37.7774 606.912 32.6531 602.201 Q27.4968 597.459 27.4968 589.438 Q27.4968 582.245 32.1438 578.075 Q36.7589 573.874 44.7161 573.874 M42.9973 579.73 Q38.1912 579.794 35.3266 582.436 Q32.4621 585.046 32.4621 589.374 Q32.4621 594.276 35.2312 597.236 Q38.0002 600.164 43.0292 600.61 L42.9973 579.73 Z" fill="#000000" fill-rule="nonzero" fill-opacity="1" /><path clip-path="url(#clip670)" d="M33.8307 543.605 Q33.2578 544.592 33.0032 545.769 Q32.7167 546.915 32.7167 548.315 Q32.7167 553.281 35.9632 555.954 Q39.1779 558.596 45.2253 558.596 L64.0042 558.596 L64.0042 564.484 L28.3562 564.484 L28.3562 558.596 L33.8944 558.596 Q30.6479 556.75 29.0883 553.79 Q27.4968 550.83 27.4968 546.597 Q27.4968 545.992 27.5923 545.26 Q27.656 544.528 27.8151 543.637 L33.8307 543.605 Z" fill="#000000" fill-rule="nonzero" fill-opacity="1" /><path clip-path="url(#clip670)" d="M33.8307 517.951 Q33.2578 518.938 33.0032 520.115 Q32.7167 521.261 32.7167 522.662 Q32.7167 527.627 35.9632 530.301 Q39.1779 532.942 45.2253 532.942 L64.0042 532.942 L64.0042 538.831 L28.3562 538.831 L28.3562 532.942 L33.8944 532.942 Q30.6479 531.096 29.0883 528.136 Q27.4968 525.176 27.4968 520.943 Q27.4968 520.338 27.5923 519.606 Q27.656 518.874 27.8151 517.983 L33.8307 517.951 Z" fill="#000000" fill-rule="nonzero" fill-opacity="1" /><path clip-path="url(#clip670)" d="M32.4621 499.427 Q32.4621 504.137 36.1542 506.875 Q39.8145 509.612 46.212 509.612 Q52.6095 509.612 56.3017 506.907 Q59.9619 504.169 59.9619 499.427 Q59.9619 494.748 56.2698 492.011 Q52.5777 489.274 46.212 489.274 Q39.8781 489.274 36.186 492.011 Q32.4621 494.748 32.4621 499.427 M27.4968 499.427 Q27.4968 491.788 32.4621 487.427 Q37.4273 483.067 46.212 483.067 Q54.9649 483.067 59.9619 487.427 Q64.9272 491.788 64.9272 499.427 Q64.9272 507.098 59.9619 511.458 Q54.9649 515.787 46.212 515.787 Q37.4273 515.787 32.4621 511.458 Q27.4968 507.098 27.4968 499.427 Z" fill="#000000" fill-rule="nonzero" fill-opacity="1" /><path clip-path="url(#clip670)" d="M33.8307 452.703 Q33.2578 453.689 33.0032 454.867 Q32.7167 456.013 32.7167 457.413 Q32.7167 462.378 35.9632 465.052 Q39.1779 467.694 45.2253 467.694 L64.0042 467.694 L64.0042 473.582 L28.3562 473.582 L28.3562 467.694 L33.8944 467.694 Q30.6479 465.848 29.0883 462.888 Q27.4968 459.928 27.4968 455.694 Q27.4968 455.09 27.5923 454.358 Q27.656 453.626 27.8151 452.734 L33.8307 452.703 Z" fill="#000000" fill-rule="nonzero" fill-opacity="1" /><path clip-path="url(#clip670)" d="M14.5426 411.771 Q21.8632 416.036 29.0246 418.105 Q36.186 420.174 43.5384 420.174 Q50.8908 420.174 58.1159 418.105 Q65.3091 416.004 72.5979 411.771 L72.5979 416.864 Q65.1182 421.638 57.8931 424.025 Q50.668 426.38 43.5384 426.38 Q36.4406 426.38 29.2474 424.025 Q22.0542 421.67 14.5426 416.864 L14.5426 411.771 Z" fill="#000000" fill-rule="nonzero" fill-opacity="1" /><path clip-path="url(#clip670)" d="M29.4065 377.683 L34.9447 377.683 Q33.6716 380.165 33.035 382.839 Q32.3984 385.513 32.3984 388.377 Q32.3984 392.738 33.7352 394.934 Q35.072 397.098 37.7456 397.098 Q39.7826 397.098 40.9603 395.539 Q42.1061 393.979 43.1565 389.268 L43.6021 387.263 Q44.9389 381.025 47.3897 378.415 Q49.8086 375.773 54.1691 375.773 Q59.1344 375.773 62.0308 379.72 Q64.9272 383.635 64.9272 390.51 Q64.9272 393.374 64.3543 396.493 Q63.8132 399.581 62.6992 403.018 L56.6518 403.018 Q58.3387 399.772 59.198 396.621 Q60.0256 393.47 60.0256 390.382 Q60.0256 386.245 58.6251 384.017 Q57.1929 381.789 54.6147 381.789 Q52.2276 381.789 50.9545 383.412 Q49.6813 385.003 48.5037 390.446 L48.0262 392.483 Q46.8804 397.926 44.5251 400.345 Q42.138 402.764 38.0002 402.764 Q32.9713 402.764 30.2341 399.199 Q27.4968 395.634 27.4968 389.077 Q27.4968 385.831 27.9743 382.966 Q28.4517 380.102 29.4065 377.683 Z" fill="#000000" fill-rule="nonzero" fill-opacity="1" /><path clip-path="url(#clip670)" d="M14.5426 367.37 L14.5426 362.278 Q22.0542 357.503 29.2474 355.148 Q36.4406 352.761 43.5384 352.761 Q50.668 352.761 57.8931 355.148 Q65.1182 357.503 72.5979 362.278 L72.5979 367.37 Q65.3091 363.137 58.1159 361.068 Q50.8908 358.968 43.5384 358.968 Q36.186 358.968 29.0246 361.068 Q21.8632 363.137 14.5426 367.37 Z" fill="#000000" fill-rule="nonzero" fill-opacity="1" /><path clip-path="url(#clip670)" d="M455.343 14.0809 L455.343 22.0612 Q450.685 19.8332 446.553 18.7395 Q442.421 17.6457 438.573 17.6457 Q431.889 17.6457 428.243 20.2383 Q424.637 22.8309 424.637 27.611 Q424.637 31.6214 427.027 33.6873 Q429.458 35.7128 436.183 36.9686 L441.125 37.9813 Q450.28 39.7232 454.614 44.1387 Q458.989 48.5136 458.989 55.8863 Q458.989 64.6767 453.075 69.2137 Q447.201 73.7508 435.818 73.7508 Q431.524 73.7508 426.663 72.7785 Q421.842 71.8063 416.657 69.9024 L416.657 61.4765 Q421.64 64.2716 426.42 65.6895 Q431.2 67.1073 435.818 67.1073 Q442.826 67.1073 446.634 64.3527 Q450.442 61.598 450.442 56.4939 Q450.442 52.0379 447.687 49.5264 Q444.973 47.0148 438.735 45.759 L433.752 44.7868 Q424.597 42.9639 420.506 39.075 Q416.414 35.1862 416.414 28.2591 Q416.414 20.2383 422.045 15.6203 Q427.716 11.0023 437.641 11.0023 Q441.894 11.0023 446.31 11.7719 Q450.725 12.5416 455.343 14.0809 Z" fill="#000000" fill-rule="nonzero" fill-opacity="1" /><path clip-path="url(#clip670)" d="M471.425 27.2059 L478.879 27.2059 L478.879 72.576 L471.425 72.576 L471.425 27.2059 M471.425 9.54393 L478.879 9.54393 L478.879 18.9825 L471.425 18.9825 L471.425 9.54393 Z" fill="#000000" fill-rule="nonzero" fill-opacity="1" /><path clip-path="url(#clip670)" d="M532.189 45.1919 L532.189 72.576 L524.735 72.576 L524.735 45.4349 Q524.735 38.994 522.224 35.7938 Q519.712 32.5936 514.689 32.5936 Q508.653 32.5936 505.169 36.4419 Q501.686 40.2903 501.686 46.9338 L501.686 72.576 L494.191 72.576 L494.191 27.2059 L501.686 27.2059 L501.686 34.2544 Q504.359 30.163 507.965 28.1376 Q511.61 26.1121 516.35 26.1121 Q524.168 26.1121 528.179 30.9732 Q532.189 35.7938 532.189 45.1919 Z" fill="#000000" fill-rule="nonzero" fill-opacity="1" /><path clip-path="url(#clip670)" d="M576.911 49.3643 Q576.911 41.2625 573.549 36.8065 Q570.227 32.3505 564.191 32.3505 Q558.196 32.3505 554.834 36.8065 Q551.512 41.2625 551.512 49.3643 Q551.512 57.4256 554.834 61.8816 Q558.196 66.3376 564.191 66.3376 Q570.227 66.3376 573.549 61.8816 Q576.911 57.4256 576.911 49.3643 M584.365 66.9452 Q584.365 78.5308 579.22 84.1616 Q574.075 89.8329 563.462 89.8329 Q559.533 89.8329 556.049 89.2252 Q552.565 88.6581 549.284 87.4428 L549.284 80.1917 Q552.565 81.9741 555.765 82.8248 Q558.965 83.6755 562.287 83.6755 Q569.619 83.6755 573.265 79.8271 Q576.911 76.0193 576.911 68.282 L576.911 64.5957 Q574.602 68.6061 570.997 70.5911 Q567.391 72.576 562.368 72.576 Q554.023 72.576 548.919 66.2161 Q543.815 59.8562 543.815 49.3643 Q543.815 38.832 548.919 32.472 Q554.023 26.1121 562.368 26.1121 Q567.391 26.1121 570.997 28.0971 Q574.602 30.082 576.911 34.0924 L576.911 27.2059 L584.365 27.2059 L584.365 66.9452 Z" fill="#000000" fill-rule="nonzero" fill-opacity="1" /><path clip-path="url(#clip670)" d="M599.718 9.54393 L607.171 9.54393 L607.171 72.576 L599.718 72.576 L599.718 9.54393 Z" fill="#000000" fill-rule="nonzero" fill-opacity="1" /><path clip-path="url(#clip670)" d="M661.575 48.0275 L661.575 51.6733 L627.304 51.6733 Q627.79 59.3701 631.922 63.421 Q636.095 67.4314 643.508 67.4314 Q647.802 67.4314 651.812 66.3781 Q655.863 65.3249 659.833 63.2184 L659.833 70.267 Q655.823 71.9684 651.61 72.8596 Q647.397 73.7508 643.062 73.7508 Q632.206 73.7508 625.846 67.4314 Q619.526 61.1119 619.526 50.3365 Q619.526 39.1965 625.522 32.6746 Q631.558 26.1121 641.766 26.1121 Q650.921 26.1121 656.228 32.0264 Q661.575 37.9003 661.575 48.0275 M654.121 45.84 Q654.04 39.7232 650.678 36.0774 Q647.356 32.4315 641.847 32.4315 Q635.609 32.4315 631.841 35.9558 Q628.114 39.4801 627.547 45.8805 L654.121 45.84 Z" fill="#000000" fill-rule="nonzero" fill-opacity="1" /><path clip-path="url(#clip670)" d="M670.041 46.5287 L691.876 46.5287 L691.876 53.1722 L670.041 53.1722 L670.041 46.5287 Z" fill="#000000" fill-rule="nonzero" fill-opacity="1" /><path clip-path="url(#clip670)" d="M736.395 28.9478 L736.395 35.9153 Q733.235 34.1734 730.035 33.3227 Q726.875 32.4315 723.635 32.4315 Q716.384 32.4315 712.373 37.0496 Q708.363 41.6271 708.363 49.9314 Q708.363 58.2358 712.373 62.8538 Q716.384 67.4314 723.635 67.4314 Q726.875 67.4314 730.035 66.5807 Q733.235 65.6895 736.395 63.9476 L736.395 70.8341 Q733.276 72.2924 729.914 73.0216 Q726.592 73.7508 722.825 73.7508 Q712.576 73.7508 706.54 67.3098 Q700.504 60.8689 700.504 49.9314 Q700.504 38.832 706.58 32.472 Q712.697 26.1121 723.311 26.1121 Q726.754 26.1121 730.035 26.8413 Q733.316 27.5299 736.395 28.9478 Z" fill="#000000" fill-rule="nonzero" fill-opacity="1" /><path clip-path="url(#clip670)" d="M749.358 9.54393 L756.812 9.54393 L756.812 72.576 L749.358 72.576 L749.358 9.54393 Z" fill="#000000" fill-rule="nonzero" fill-opacity="1" /><path clip-path="url(#clip670)" d="M789.989 32.4315 Q783.993 32.4315 780.509 37.1306 Q777.026 41.7891 777.026 49.9314 Q777.026 58.0738 780.469 62.7728 Q783.953 67.4314 789.989 67.4314 Q795.943 67.4314 799.427 62.7323 Q802.911 58.0333 802.911 49.9314 Q802.911 41.8701 799.427 37.1711 Q795.943 32.4315 789.989 32.4315 M789.989 26.1121 Q799.711 26.1121 805.26 32.4315 Q810.81 38.7509 810.81 49.9314 Q810.81 61.0714 805.26 67.4314 Q799.711 73.7508 789.989 73.7508 Q780.226 73.7508 774.676 67.4314 Q769.167 61.0714 769.167 49.9314 Q769.167 38.7509 774.676 32.4315 Q780.226 26.1121 789.989 26.1121 Z" fill="#000000" fill-rule="nonzero" fill-opacity="1" /><path clip-path="url(#clip670)" d="M855.816 28.9478 L855.816 35.9153 Q852.656 34.1734 849.456 33.3227 Q846.296 32.4315 843.055 32.4315 Q835.804 32.4315 831.794 37.0496 Q827.783 41.6271 827.783 49.9314 Q827.783 58.2358 831.794 62.8538 Q835.804 67.4314 843.055 67.4314 Q846.296 67.4314 849.456 66.5807 Q852.656 65.6895 855.816 63.9476 L855.816 70.8341 Q852.697 72.2924 849.334 73.0216 Q846.013 73.7508 842.245 73.7508 Q831.996 73.7508 825.961 67.3098 Q819.925 60.8689 819.925 49.9314 Q819.925 38.832 826.001 32.472 Q832.118 26.1121 842.731 26.1121 Q846.175 26.1121 849.456 26.8413 Q852.737 27.5299 855.816 28.9478 Z" fill="#000000" fill-rule="nonzero" fill-opacity="1" /><path clip-path="url(#clip670)" d="M868.495 9.54393 L875.989 9.54393 L875.989 46.7717 L898.229 27.2059 L907.748 27.2059 L883.686 48.4326 L908.761 72.576 L899.039 72.576 L875.989 50.4176 L875.989 72.576 L868.495 72.576 L868.495 9.54393 Z" fill="#000000" fill-rule="nonzero" fill-opacity="1" /><path clip-path="url(#clip670)" d="M966.162 9.54393 L966.162 15.7418 L959.033 15.7418 Q955.022 15.7418 953.442 17.3622 Q951.903 18.9825 951.903 23.1955 L951.903 27.2059 L964.177 27.2059 L964.177 32.9987 L951.903 32.9987 L951.903 72.576 L944.409 72.576 L944.409 32.9987 L937.279 32.9987 L937.279 27.2059 L944.409 27.2059 L944.409 24.0462 Q944.409 16.471 947.933 13.0277 Q951.458 9.54393 959.114 9.54393 L966.162 9.54393 Z" fill="#000000" fill-rule="nonzero" fill-opacity="1" /><path clip-path="url(#clip670)" d="M998.691 34.1734 Q997.435 33.4443 995.936 33.1202 Q994.478 32.7556 992.696 32.7556 Q986.376 32.7556 982.974 36.8875 Q979.611 40.9789 979.611 48.6757 L979.611 72.576 L972.117 72.576 L972.117 27.2059 L979.611 27.2059 L979.611 34.2544 Q981.961 30.1225 985.728 28.1376 Q989.496 26.1121 994.883 26.1121 Q995.653 26.1121 996.585 26.2337 Q997.516 26.3147 998.651 26.5172 L998.691 34.1734 Z" fill="#000000" fill-rule="nonzero" fill-opacity="1" /><path clip-path="url(#clip670)" d="M1043.49 48.0275 L1043.49 51.6733 L1009.22 51.6733 Q1009.71 59.3701 1013.84 63.421 Q1018.01 67.4314 1025.43 67.4314 Q1029.72 67.4314 1033.73 66.3781 Q1037.78 65.3249 1041.75 63.2184 L1041.75 70.267 Q1037.74 71.9684 1033.53 72.8596 Q1029.32 73.7508 1024.98 73.7508 Q1014.13 73.7508 1007.77 67.4314 Q1001.45 61.1119 1001.45 50.3365 Q1001.45 39.1965 1007.44 32.6746 Q1013.48 26.1121 1023.69 26.1121 Q1032.84 26.1121 1038.15 32.0264 Q1043.49 37.9003 1043.49 48.0275 M1036.04 45.84 Q1035.96 39.7232 1032.6 36.0774 Q1029.28 32.4315 1023.77 32.4315 Q1017.53 32.4315 1013.76 35.9558 Q1010.03 39.4801 1009.47 45.8805 L1036.04 45.84 Z" fill="#000000" fill-rule="nonzero" fill-opacity="1" /><path clip-path="url(#clip670)" d="M1094.54 48.0275 L1094.54 51.6733 L1060.26 51.6733 Q1060.75 59.3701 1064.88 63.421 Q1069.06 67.4314 1076.47 67.4314 Q1080.76 67.4314 1084.77 66.3781 Q1088.82 65.3249 1092.79 63.2184 L1092.79 70.267 Q1088.78 71.9684 1084.57 72.8596 Q1080.36 73.7508 1076.02 73.7508 Q1065.17 73.7508 1058.81 67.4314 Q1052.49 61.1119 1052.49 50.3365 Q1052.49 39.1965 1058.48 32.6746 Q1064.52 26.1121 1074.73 26.1121 Q1083.88 26.1121 1089.19 32.0264 Q1094.54 37.9003 1094.54 48.0275 M1087.08 45.84 Q1087 39.7232 1083.64 36.0774 Q1080.32 32.4315 1074.81 32.4315 Q1068.57 32.4315 1064.8 35.9558 Q1061.08 39.4801 1060.51 45.8805 L1087.08 45.84 Z" fill="#000000" fill-rule="nonzero" fill-opacity="1" /><path clip-path="url(#clip670)" d="M1103 46.5287 L1124.84 46.5287 L1124.84 53.1722 L1103 53.1722 L1103 46.5287 Z" fill="#000000" fill-rule="nonzero" fill-opacity="1" /><path clip-path="url(#clip670)" d="M1163 34.1734 Q1161.74 33.4443 1160.24 33.1202 Q1158.78 32.7556 1157 32.7556 Q1150.68 32.7556 1147.28 36.8875 Q1143.92 40.9789 1143.92 48.6757 L1143.92 72.576 L1136.42 72.576 L1136.42 27.2059 L1143.92 27.2059 L1143.92 34.2544 Q1146.27 30.1225 1150.03 28.1376 Q1153.8 26.1121 1159.19 26.1121 Q1159.96 26.1121 1160.89 26.2337 Q1161.82 26.3147 1162.96 26.5172 L1163 34.1734 Z" fill="#000000" fill-rule="nonzero" fill-opacity="1" /><path clip-path="url(#clip670)" d="M1170.04 54.671 L1170.04 27.2059 L1177.5 27.2059 L1177.5 54.3874 Q1177.5 60.8284 1180.01 64.0691 Q1182.52 67.2693 1187.54 67.2693 Q1193.58 67.2693 1197.06 63.421 Q1200.59 59.5726 1200.59 52.9291 L1200.59 27.2059 L1208.04 27.2059 L1208.04 72.576 L1200.59 72.576 L1200.59 65.6084 Q1197.87 69.7404 1194.27 71.7658 Q1190.7 73.7508 1185.96 73.7508 Q1178.15 73.7508 1174.1 68.8897 Q1170.04 64.0286 1170.04 54.671 M1188.8 26.1121 L1188.8 26.1121 Z" fill="#000000" fill-rule="nonzero" fill-opacity="1" /><path clip-path="url(#clip670)" d="M1261.11 45.1919 L1261.11 72.576 L1253.66 72.576 L1253.66 45.4349 Q1253.66 38.994 1251.14 35.7938 Q1248.63 32.5936 1243.61 32.5936 Q1237.57 32.5936 1234.09 36.4419 Q1230.61 40.2903 1230.61 46.9338 L1230.61 72.576 L1223.11 72.576 L1223.11 27.2059 L1230.61 27.2059 L1230.61 34.2544 Q1233.28 30.163 1236.88 28.1376 Q1240.53 26.1121 1245.27 26.1121 Q1253.09 26.1121 1257.1 30.9732 Q1261.11 35.7938 1261.11 45.1919 Z" fill="#000000" fill-rule="nonzero" fill-opacity="1" /><path clip-path="url(#clip670)" d="M1313.69 45.1919 L1313.69 72.576 L1306.24 72.576 L1306.24 45.4349 Q1306.24 38.994 1303.72 35.7938 Q1301.21 32.5936 1296.19 32.5936 Q1290.15 32.5936 1286.67 36.4419 Q1283.19 40.2903 1283.19 46.9338 L1283.19 72.576 L1275.69 72.576 L1275.69 27.2059 L1283.19 27.2059 L1283.19 34.2544 Q1285.86 30.163 1289.47 28.1376 Q1293.11 26.1121 1297.85 26.1121 Q1305.67 26.1121 1309.68 30.9732 Q1313.69 35.7938 1313.69 45.1919 Z" fill="#000000" fill-rule="nonzero" fill-opacity="1" /><path clip-path="url(#clip670)" d="M1328.56 27.2059 L1336.01 27.2059 L1336.01 72.576 L1328.56 72.576 L1328.56 27.2059 M1328.56 9.54393 L1336.01 9.54393 L1336.01 18.9825 L1328.56 18.9825 L1328.56 9.54393 Z" fill="#000000" fill-rule="nonzero" fill-opacity="1" /><path clip-path="url(#clip670)" d="M1389.32 45.1919 L1389.32 72.576 L1381.87 72.576 L1381.87 45.4349 Q1381.87 38.994 1379.35 35.7938 Q1376.84 32.5936 1371.82 32.5936 Q1365.78 32.5936 1362.3 36.4419 Q1358.82 40.2903 1358.82 46.9338 L1358.82 72.576 L1351.32 72.576 L1351.32 27.2059 L1358.82 27.2059 L1358.82 34.2544 Q1361.49 30.163 1365.1 28.1376 Q1368.74 26.1121 1373.48 26.1121 Q1381.3 26.1121 1385.31 30.9732 Q1389.32 35.7938 1389.32 45.1919 Z" fill="#000000" fill-rule="nonzero" fill-opacity="1" /><path clip-path="url(#clip670)" d="M1434.04 49.3643 Q1434.04 41.2625 1430.68 36.8065 Q1427.36 32.3505 1421.32 32.3505 Q1415.33 32.3505 1411.96 36.8065 Q1408.64 41.2625 1408.64 49.3643 Q1408.64 57.4256 1411.96 61.8816 Q1415.33 66.3376 1421.32 66.3376 Q1427.36 66.3376 1430.68 61.8816 Q1434.04 57.4256 1434.04 49.3643 M1441.5 66.9452 Q1441.5 78.5308 1436.35 84.1616 Q1431.21 89.8329 1420.59 89.8329 Q1416.66 89.8329 1413.18 89.2252 Q1409.7 88.6581 1406.41 87.4428 L1406.41 80.1917 Q1409.7 81.9741 1412.9 82.8248 Q1416.1 83.6755 1419.42 83.6755 Q1426.75 83.6755 1430.4 79.8271 Q1434.04 76.0193 1434.04 68.282 L1434.04 64.5957 Q1431.73 68.6061 1428.13 70.5911 Q1424.52 72.576 1419.5 72.576 Q1411.15 72.576 1406.05 66.2161 Q1400.95 59.8562 1400.95 49.3643 Q1400.95 38.832 1406.05 32.472 Q1411.15 26.1121 1419.5 26.1121 Q1424.52 26.1121 1428.13 28.0971 Q1431.73 30.082 1434.04 34.0924 L1434.04 27.2059 L1441.5 27.2059 L1441.5 66.9452 Z" fill="#000000" fill-rule="nonzero" fill-opacity="1" /><path clip-path="url(#clip670)" d="M1520.93 45.1919 L1520.93 72.576 L1513.48 72.576 L1513.48 45.4349 Q1513.48 38.994 1510.97 35.7938 Q1508.46 32.5936 1503.43 32.5936 Q1497.4 32.5936 1493.91 36.4419 Q1490.43 40.2903 1490.43 46.9338 L1490.43 72.576 L1482.94 72.576 L1482.94 9.54393 L1490.43 9.54393 L1490.43 34.2544 Q1493.1 30.163 1496.71 28.1376 Q1500.36 26.1121 1505.09 26.1121 Q1512.91 26.1121 1516.92 30.9732 Q1520.93 35.7938 1520.93 45.1919 Z" fill="#000000" fill-rule="nonzero" fill-opacity="1" /><path clip-path="url(#clip670)" d="M1553.38 32.4315 Q1547.39 32.4315 1543.9 37.1306 Q1540.42 41.7891 1540.42 49.9314 Q1540.42 58.0738 1543.86 62.7728 Q1547.35 67.4314 1553.38 67.4314 Q1559.34 67.4314 1562.82 62.7323 Q1566.3 58.0333 1566.3 49.9314 Q1566.3 41.8701 1562.82 37.1711 Q1559.34 32.4315 1553.38 32.4315 M1553.38 26.1121 Q1563.1 26.1121 1568.65 32.4315 Q1574.2 38.7509 1574.2 49.9314 Q1574.2 61.0714 1568.65 67.4314 Q1563.1 73.7508 1553.38 73.7508 Q1543.62 73.7508 1538.07 67.4314 Q1532.56 61.0714 1532.56 49.9314 Q1532.56 38.7509 1538.07 32.4315 Q1543.62 26.1121 1553.38 26.1121 Z" fill="#000000" fill-rule="nonzero" fill-opacity="1" /><path clip-path="url(#clip670)" d="M1586.56 9.54393 L1594.01 9.54393 L1594.01 72.576 L1586.56 72.576 L1586.56 9.54393 Z" fill="#000000" fill-rule="nonzero" fill-opacity="1" /><path clip-path="url(#clip670)" d="M1639.46 34.0924 L1639.46 9.54393 L1646.92 9.54393 L1646.92 72.576 L1639.46 72.576 L1639.46 65.7705 Q1637.11 69.8214 1633.51 71.8063 Q1629.94 73.7508 1624.92 73.7508 Q1616.7 73.7508 1611.51 67.1883 Q1606.37 60.6258 1606.37 49.9314 Q1606.37 39.2371 1611.51 32.6746 Q1616.7 26.1121 1624.92 26.1121 Q1629.94 26.1121 1633.51 28.0971 Q1637.11 30.0415 1639.46 34.0924 M1614.06 49.9314 Q1614.06 58.1548 1617.43 62.8538 Q1620.83 67.5124 1626.74 67.5124 Q1632.66 67.5124 1636.06 62.8538 Q1639.46 58.1548 1639.46 49.9314 Q1639.46 41.7081 1636.06 37.0496 Q1632.66 32.3505 1626.74 32.3505 Q1620.83 32.3505 1617.43 37.0496 Q1614.06 41.7081 1614.06 49.9314 Z" fill="#000000" fill-rule="nonzero" fill-opacity="1" /><path clip-path="url(#clip670)" d="M1679.85 32.4315 Q1673.86 32.4315 1670.37 37.1306 Q1666.89 41.7891 1666.89 49.9314 Q1666.89 58.0738 1670.33 62.7728 Q1673.81 67.4314 1679.85 67.4314 Q1685.81 67.4314 1689.29 62.7323 Q1692.77 58.0333 1692.77 49.9314 Q1692.77 41.8701 1689.29 37.1711 Q1685.81 32.4315 1679.85 32.4315 M1679.85 26.1121 Q1689.57 26.1121 1695.12 32.4315 Q1700.67 38.7509 1700.67 49.9314 Q1700.67 61.0714 1695.12 67.4314 Q1689.57 73.7508 1679.85 73.7508 Q1670.09 73.7508 1664.54 67.4314 Q1659.03 61.0714 1659.03 49.9314 Q1659.03 38.7509 1664.54 32.4315 Q1670.09 26.1121 1679.85 26.1121 Z" fill="#000000" fill-rule="nonzero" fill-opacity="1" /><path clip-path="url(#clip670)" d="M1707.68 27.2059 L1715.58 27.2059 L1729.76 65.2844 L1743.94 27.2059 L1751.84 27.2059 L1734.82 72.576 L1724.69 72.576 L1707.68 27.2059 Z" fill="#000000" fill-rule="nonzero" fill-opacity="1" /><path clip-path="url(#clip670)" d="M1800.93 48.0275 L1800.93 51.6733 L1766.66 51.6733 Q1767.15 59.3701 1771.28 63.421 Q1775.45 67.4314 1782.87 67.4314 Q1787.16 67.4314 1791.17 66.3781 Q1795.22 65.3249 1799.19 63.2184 L1799.19 70.267 Q1795.18 71.9684 1790.97 72.8596 Q1786.75 73.7508 1782.42 73.7508 Q1771.56 73.7508 1765.2 67.4314 Q1758.88 61.1119 1758.88 50.3365 Q1758.88 39.1965 1764.88 32.6746 Q1770.91 26.1121 1781.12 26.1121 Q1790.28 26.1121 1795.58 32.0264 Q1800.93 37.9003 1800.93 48.0275 M1793.48 45.84 Q1793.4 39.7232 1790.04 36.0774 Q1786.71 32.4315 1781.2 32.4315 Q1774.97 32.4315 1771.2 35.9558 Q1767.47 39.4801 1766.9 45.8805 L1793.48 45.84 Z" fill="#000000" fill-rule="nonzero" fill-opacity="1" /><path clip-path="url(#clip670)" d="M1839.46 34.1734 Q1838.2 33.4443 1836.7 33.1202 Q1835.24 32.7556 1833.46 32.7556 Q1827.14 32.7556 1823.74 36.8875 Q1820.38 40.9789 1820.38 48.6757 L1820.38 72.576 L1812.88 72.576 L1812.88 27.2059 L1820.38 27.2059 L1820.38 34.2544 Q1822.73 30.1225 1826.49 28.1376 Q1830.26 26.1121 1835.65 26.1121 Q1836.42 26.1121 1837.35 26.2337 Q1838.28 26.3147 1839.42 26.5172 L1839.46 34.1734 Z" fill="#000000" fill-rule="nonzero" fill-opacity="1" /><path clip-path="url(#clip670)" d="M1906.22 49.9314 Q1906.22 41.7081 1902.81 37.0496 Q1899.45 32.3505 1893.54 32.3505 Q1887.62 32.3505 1884.22 37.0496 Q1880.86 41.7081 1880.86 49.9314 Q1880.86 58.1548 1884.22 62.8538 Q1887.62 67.5124 1893.54 67.5124 Q1899.45 67.5124 1902.81 62.8538 Q1906.22 58.1548 1906.22 49.9314 M1880.86 34.0924 Q1883.21 30.0415 1886.77 28.0971 Q1890.38 26.1121 1895.36 26.1121 Q1903.62 26.1121 1908.77 32.6746 Q1913.95 39.2371 1913.95 49.9314 Q1913.95 60.6258 1908.77 67.1883 Q1903.62 73.7508 1895.36 73.7508 Q1890.38 73.7508 1886.77 71.8063 Q1883.21 69.8214 1880.86 65.7705 L1880.86 72.576 L1873.36 72.576 L1873.36 9.54393 L1880.86 9.54393 L1880.86 34.0924 Z" fill="#000000" fill-rule="nonzero" fill-opacity="1" /><path clip-path="url(#clip670)" d="M1925.54 54.671 L1925.54 27.2059 L1932.99 27.2059 L1932.99 54.3874 Q1932.99 60.8284 1935.5 64.0691 Q1938.01 67.2693 1943.04 67.2693 Q1949.07 67.2693 1952.56 63.421 Q1956.08 59.5726 1956.08 52.9291 L1956.08 27.2059 L1963.54 27.2059 L1963.54 72.576 L1956.08 72.576 L1956.08 65.6084 Q1953.37 69.7404 1949.76 71.7658 Q1946.2 73.7508 1941.46 73.7508 Q1933.64 73.7508 1929.59 68.8897 Q1925.54 64.0286 1925.54 54.671 M1944.29 26.1121 L1944.29 26.1121 Z" fill="#000000" fill-rule="nonzero" fill-opacity="1" /><path clip-path="url(#clip670)" d="M2008.74 34.0924 L2008.74 9.54393 L2016.2 9.54393 L2016.2 72.576 L2008.74 72.576 L2008.74 65.7705 Q2006.39 69.8214 2002.79 71.8063 Q1999.22 73.7508 1994.2 73.7508 Q1985.98 73.7508 1980.79 67.1883 Q1975.65 60.6258 1975.65 49.9314 Q1975.65 39.2371 1980.79 32.6746 Q1985.98 26.1121 1994.2 26.1121 Q1999.22 26.1121 2002.79 28.0971 Q2006.39 30.0415 2008.74 34.0924 M1983.34 49.9314 Q1983.34 58.1548 1986.71 62.8538 Q1990.11 67.5124 1996.02 67.5124 Q2001.94 67.5124 2005.34 62.8538 Q2008.74 58.1548 2008.74 49.9314 Q2008.74 41.7081 2005.34 37.0496 Q2001.94 32.3505 1996.02 32.3505 Q1990.11 32.3505 1986.71 37.0496 Q1983.34 41.7081 1983.34 49.9314 Z" fill="#000000" fill-rule="nonzero" fill-opacity="1" /><path clip-path="url(#clip670)" d="M2061.41 49.3643 Q2061.41 41.2625 2058.04 36.8065 Q2054.72 32.3505 2048.69 32.3505 Q2042.69 32.3505 2039.33 36.8065 Q2036.01 41.2625 2036.01 49.3643 Q2036.01 57.4256 2039.33 61.8816 Q2042.69 66.3376 2048.69 66.3376 Q2054.72 66.3376 2058.04 61.8816 Q2061.41 57.4256 2061.41 49.3643 M2068.86 66.9452 Q2068.86 78.5308 2063.71 84.1616 Q2058.57 89.8329 2047.96 89.8329 Q2044.03 89.8329 2040.54 89.2252 Q2037.06 88.6581 2033.78 87.4428 L2033.78 80.1917 Q2037.06 81.9741 2040.26 82.8248 Q2043.46 83.6755 2046.78 83.6755 Q2054.11 83.6755 2057.76 79.8271 Q2061.41 76.0193 2061.41 68.282 L2061.41 64.5957 Q2059.1 68.6061 2055.49 70.5911 Q2051.89 72.576 2046.86 72.576 Q2038.52 72.576 2033.41 66.2161 Q2028.31 59.8562 2028.31 49.3643 Q2028.31 38.832 2033.41 32.472 Q2038.52 26.1121 2046.86 26.1121 Q2051.89 26.1121 2055.49 28.0971 Q2059.1 30.082 2061.41 34.0924 L2061.41 27.2059 L2068.86 27.2059 L2068.86 66.9452 Z" fill="#000000" fill-rule="nonzero" fill-opacity="1" /><path clip-path="url(#clip670)" d="M2123.02 48.0275 L2123.02 51.6733 L2088.75 51.6733 Q2089.24 59.3701 2093.37 63.421 Q2097.54 67.4314 2104.95 67.4314 Q2109.25 67.4314 2113.26 66.3781 Q2117.31 65.3249 2121.28 63.2184 L2121.28 70.267 Q2117.27 71.9684 2113.05 72.8596 Q2108.84 73.7508 2104.51 73.7508 Q2093.65 73.7508 2087.29 67.4314 Q2080.97 61.1119 2080.97 50.3365 Q2080.97 39.1965 2086.97 32.6746 Q2093 26.1121 2103.21 26.1121 Q2112.37 26.1121 2117.67 32.0264 Q2123.02 37.9003 2123.02 48.0275 M2115.57 45.84 Q2115.48 39.7232 2112.12 36.0774 Q2108.8 32.4315 2103.29 32.4315 Q2097.05 32.4315 2093.29 35.9558 Q2089.56 39.4801 2088.99 45.8805 L2115.57 45.84 Z" fill="#000000" fill-rule="nonzero" fill-opacity="1" /><path clip-path="url(#clip670)" d="M2142.63 14.324 L2142.63 27.2059 L2157.98 27.2059 L2157.98 32.9987 L2142.63 32.9987 L2142.63 57.6282 Q2142.63 63.1779 2144.12 64.7578 Q2145.66 66.3376 2150.32 66.3376 L2157.98 66.3376 L2157.98 72.576 L2150.32 72.576 Q2141.69 72.576 2138.41 69.3758 Q2135.13 66.1351 2135.13 57.6282 L2135.13 32.9987 L2129.66 32.9987 L2129.66 27.2059 L2135.13 27.2059 L2135.13 14.324 L2142.63 14.324 Z" fill="#000000" fill-rule="nonzero" fill-opacity="1" /><polyline clip-path="url(#clip671)" style="stroke:#009af9; stroke-linecap:round; stroke-linejoin:round; stroke-width:4; stroke-opacity:1; fill:none" points="281.952,1373.95 433.256,1350.99 521.764,1320.93 584.561,1296.23 706.717,1244.27 805.379,1200.26 912.88,1152.75 1024.39,1104.52 1126.98,1058.33 1232.96,1006.83 1339.37,953.636 1446.01,900.275 1551.75,854.017 1657.73,802.928 1763.4,744.934 1869.11,668.931 1975.02,585.097 2080.83,505.879 2186.61,379.268 2292.44,242.017 "/>
<polyline clip-path="url(#clip671)" style="stroke:#000000; stroke-linecap:round; stroke-linejoin:round; stroke-width:4; stroke-opacity:1; fill:none" points="281.952,1374.46 281.952,1373.44 "/>
<polyline clip-path="url(#clip671)" style="stroke:#000000; stroke-linecap:round; stroke-linejoin:round; stroke-width:4; stroke-opacity:1; fill:none" points="433.256,1351.64 433.256,1350.34 "/>
<polyline clip-path="url(#clip671)" style="stroke:#000000; stroke-linecap:round; stroke-linejoin:round; stroke-width:4; stroke-opacity:1; fill:none" points="521.764,1321.72 521.764,1320.13 "/>
<polyline clip-path="url(#clip671)" style="stroke:#000000; stroke-linecap:round; stroke-linejoin:round; stroke-width:4; stroke-opacity:1; fill:none" points="584.561,1297.15 584.561,1295.31 "/>
<polyline clip-path="url(#clip671)" style="stroke:#000000; stroke-linecap:round; stroke-linejoin:round; stroke-width:4; stroke-opacity:1; fill:none" points="706.717,1245.47 706.717,1243.04 "/>
<polyline clip-path="url(#clip671)" style="stroke:#000000; stroke-linecap:round; stroke-linejoin:round; stroke-width:4; stroke-opacity:1; fill:none" points="805.379,1201.77 805.379,1198.72 "/>
<polyline clip-path="url(#clip671)" style="stroke:#000000; stroke-linecap:round; stroke-linejoin:round; stroke-width:4; stroke-opacity:1; fill:none" points="912.88,1154.69 912.88,1150.79 "/>
<polyline clip-path="url(#clip671)" style="stroke:#000000; stroke-linecap:round; stroke-linejoin:round; stroke-width:4; stroke-opacity:1; fill:none" points="1024.39,1107.01 1024.39,1101.97 "/>
<polyline clip-path="url(#clip671)" style="stroke:#000000; stroke-linecap:round; stroke-linejoin:round; stroke-width:4; stroke-opacity:1; fill:none" points="1126.98,1061.46 1126.98,1055.09 "/>
<polyline clip-path="url(#clip671)" style="stroke:#000000; stroke-linecap:round; stroke-linejoin:round; stroke-width:4; stroke-opacity:1; fill:none" points="1232.96,1010.81 1232.96,1002.68 "/>
<polyline clip-path="url(#clip671)" style="stroke:#000000; stroke-linecap:round; stroke-linejoin:round; stroke-width:4; stroke-opacity:1; fill:none" points="1339.37,958.693 1339.37,948.313 "/>
<polyline clip-path="url(#clip671)" style="stroke:#000000; stroke-linecap:round; stroke-linejoin:round; stroke-width:4; stroke-opacity:1; fill:none" points="1446.01,906.692 1446.01,893.424 "/>
<polyline clip-path="url(#clip671)" style="stroke:#000000; stroke-linecap:round; stroke-linejoin:round; stroke-width:4; stroke-opacity:1; fill:none" points="1551.75,862.132 1551.75,845.193 "/>
<polyline clip-path="url(#clip671)" style="stroke:#000000; stroke-linecap:round; stroke-linejoin:round; stroke-width:4; stroke-opacity:1; fill:none" points="1657.73,813.181 1657.73,791.518 "/>
<polyline clip-path="url(#clip671)" style="stroke:#000000; stroke-linecap:round; stroke-linejoin:round; stroke-width:4; stroke-opacity:1; fill:none" points="1763.4,757.945 1763.4,729.998 "/>
<polyline clip-path="url(#clip671)" style="stroke:#000000; stroke-linecap:round; stroke-linejoin:round; stroke-width:4; stroke-opacity:1; fill:none" points="1869.11,685.31 1869.11,649.38 "/>
<polyline clip-path="url(#clip671)" style="stroke:#000000; stroke-linecap:round; stroke-linejoin:round; stroke-width:4; stroke-opacity:1; fill:none" points="1975.02,605.554 1975.02,559.43 "/>
<polyline clip-path="url(#clip671)" style="stroke:#000000; stroke-linecap:round; stroke-linejoin:round; stroke-width:4; stroke-opacity:1; fill:none" points="2080.83,534.33 2080.83,466.176 "/>
<polyline clip-path="url(#clip671)" style="stroke:#000000; stroke-linecap:round; stroke-linejoin:round; stroke-width:4; stroke-opacity:1; fill:none" points="2186.61,414.933 2186.61,323.778 "/>
<polyline clip-path="url(#clip671)" style="stroke:#000000; stroke-linecap:round; stroke-linejoin:round; stroke-width:4; stroke-opacity:1; fill:none" points="2292.44,286.851 2292.44,159.909 "/>
<line clip-path="url(#clip671)" x1="297.952" y1="1374.46" x2="265.952" y2="1374.46" style="stroke:#000000; stroke-width:4; stroke-opacity:1"/>
<line clip-path="url(#clip671)" x1="297.952" y1="1373.44" x2="265.952" y2="1373.44" style="stroke:#000000; stroke-width:4; stroke-opacity:1"/>
<line clip-path="url(#clip671)" x1="449.256" y1="1351.64" x2="417.256" y2="1351.64" style="stroke:#000000; stroke-width:4; stroke-opacity:1"/>
<line clip-path="url(#clip671)" x1="449.256" y1="1350.34" x2="417.256" y2="1350.34" style="stroke:#000000; stroke-width:4; stroke-opacity:1"/>
<line clip-path="url(#clip671)" x1="537.764" y1="1321.72" x2="505.764" y2="1321.72" style="stroke:#000000; stroke-width:4; stroke-opacity:1"/>
<line clip-path="url(#clip671)" x1="537.764" y1="1320.13" x2="505.764" y2="1320.13" style="stroke:#000000; stroke-width:4; stroke-opacity:1"/>
<line clip-path="url(#clip671)" x1="600.561" y1="1297.15" x2="568.561" y2="1297.15" style="stroke:#000000; stroke-width:4; stroke-opacity:1"/>
<line clip-path="url(#clip671)" x1="600.561" y1="1295.31" x2="568.561" y2="1295.31" style="stroke:#000000; stroke-width:4; stroke-opacity:1"/>
<line clip-path="url(#clip671)" x1="722.717" y1="1245.47" x2="690.717" y2="1245.47" style="stroke:#000000; stroke-width:4; stroke-opacity:1"/>
<line clip-path="url(#clip671)" x1="722.717" y1="1243.04" x2="690.717" y2="1243.04" style="stroke:#000000; stroke-width:4; stroke-opacity:1"/>
<line clip-path="url(#clip671)" x1="821.379" y1="1201.77" x2="789.379" y2="1201.77" style="stroke:#000000; stroke-width:4; stroke-opacity:1"/>
<line clip-path="url(#clip671)" x1="821.379" y1="1198.72" x2="789.379" y2="1198.72" style="stroke:#000000; stroke-width:4; stroke-opacity:1"/>
<line clip-path="url(#clip671)" x1="928.88" y1="1154.69" x2="896.88" y2="1154.69" style="stroke:#000000; stroke-width:4; stroke-opacity:1"/>
<line clip-path="url(#clip671)" x1="928.88" y1="1150.79" x2="896.88" y2="1150.79" style="stroke:#000000; stroke-width:4; stroke-opacity:1"/>
<line clip-path="url(#clip671)" x1="1040.39" y1="1107.01" x2="1008.39" y2="1107.01" style="stroke:#000000; stroke-width:4; stroke-opacity:1"/>
<line clip-path="url(#clip671)" x1="1040.39" y1="1101.97" x2="1008.39" y2="1101.97" style="stroke:#000000; stroke-width:4; stroke-opacity:1"/>
<line clip-path="url(#clip671)" x1="1142.98" y1="1061.46" x2="1110.98" y2="1061.46" style="stroke:#000000; stroke-width:4; stroke-opacity:1"/>
<line clip-path="url(#clip671)" x1="1142.98" y1="1055.09" x2="1110.98" y2="1055.09" style="stroke:#000000; stroke-width:4; stroke-opacity:1"/>
<line clip-path="url(#clip671)" x1="1248.96" y1="1010.81" x2="1216.96" y2="1010.81" style="stroke:#000000; stroke-width:4; stroke-opacity:1"/>
<line clip-path="url(#clip671)" x1="1248.96" y1="1002.68" x2="1216.96" y2="1002.68" style="stroke:#000000; stroke-width:4; stroke-opacity:1"/>
<line clip-path="url(#clip671)" x1="1355.37" y1="958.693" x2="1323.37" y2="958.693" style="stroke:#000000; stroke-width:4; stroke-opacity:1"/>
<line clip-path="url(#clip671)" x1="1355.37" y1="948.313" x2="1323.37" y2="948.313" style="stroke:#000000; stroke-width:4; stroke-opacity:1"/>
<line clip-path="url(#clip671)" x1="1462.01" y1="906.692" x2="1430.01" y2="906.692" style="stroke:#000000; stroke-width:4; stroke-opacity:1"/>
<line clip-path="url(#clip671)" x1="1462.01" y1="893.424" x2="1430.01" y2="893.424" style="stroke:#000000; stroke-width:4; stroke-opacity:1"/>
<line clip-path="url(#clip671)" x1="1567.75" y1="862.132" x2="1535.75" y2="862.132" style="stroke:#000000; stroke-width:4; stroke-opacity:1"/>
<line clip-path="url(#clip671)" x1="1567.75" y1="845.193" x2="1535.75" y2="845.193" style="stroke:#000000; stroke-width:4; stroke-opacity:1"/>
<line clip-path="url(#clip671)" x1="1673.73" y1="813.181" x2="1641.73" y2="813.181" style="stroke:#000000; stroke-width:4; stroke-opacity:1"/>
<line clip-path="url(#clip671)" x1="1673.73" y1="791.518" x2="1641.73" y2="791.518" style="stroke:#000000; stroke-width:4; stroke-opacity:1"/>
<line clip-path="url(#clip671)" x1="1779.4" y1="757.945" x2="1747.4" y2="757.945" style="stroke:#000000; stroke-width:4; stroke-opacity:1"/>
<line clip-path="url(#clip671)" x1="1779.4" y1="729.998" x2="1747.4" y2="729.998" style="stroke:#000000; stroke-width:4; stroke-opacity:1"/>
<line clip-path="url(#clip671)" x1="1885.11" y1="685.31" x2="1853.11" y2="685.31" style="stroke:#000000; stroke-width:4; stroke-opacity:1"/>
<line clip-path="url(#clip671)" x1="1885.11" y1="649.38" x2="1853.11" y2="649.38" style="stroke:#000000; stroke-width:4; stroke-opacity:1"/>
<line clip-path="url(#clip671)" x1="1991.02" y1="605.554" x2="1959.02" y2="605.554" style="stroke:#000000; stroke-width:4; stroke-opacity:1"/>
<line clip-path="url(#clip671)" x1="1991.02" y1="559.43" x2="1959.02" y2="559.43" style="stroke:#000000; stroke-width:4; stroke-opacity:1"/>
<line clip-path="url(#clip671)" x1="2096.83" y1="534.33" x2="2064.83" y2="534.33" style="stroke:#000000; stroke-width:4; stroke-opacity:1"/>
<line clip-path="url(#clip671)" x1="2096.83" y1="466.176" x2="2064.83" y2="466.176" style="stroke:#000000; stroke-width:4; stroke-opacity:1"/>
<line clip-path="url(#clip671)" x1="2202.61" y1="414.933" x2="2170.61" y2="414.933" style="stroke:#000000; stroke-width:4; stroke-opacity:1"/>
<line clip-path="url(#clip671)" x1="2202.61" y1="323.778" x2="2170.61" y2="323.778" style="stroke:#000000; stroke-width:4; stroke-opacity:1"/>
<line clip-path="url(#clip671)" x1="2308.44" y1="286.851" x2="2276.44" y2="286.851" style="stroke:#000000; stroke-width:4; stroke-opacity:1"/>
<line clip-path="url(#clip671)" x1="2308.44" y1="159.909" x2="2276.44" y2="159.909" style="stroke:#000000; stroke-width:4; stroke-opacity:1"/>
</svg>
