<?xml version="1.0" encoding="UTF-8"?>
<svg xmlns="http://www.w3.org/2000/svg" xmlns:xlink="http://www.w3.org/1999/xlink" width="441.027" height="304.18" viewBox="0 0 441.027 304.18">
<defs>
<g>
<g id="glyph-1778740520414658--0-0">
<path d="M 2.5 -5.0625 C 2.5 -5.28125 2.484375 -5.28125 2.265625 -5.28125 C 1.9375 -4.96875 1.515625 -4.78125 0.765625 -4.78125 L 0.765625 -4.515625 C 0.984375 -4.515625 1.40625 -4.515625 1.875 -4.734375 L 1.875 -0.65625 C 1.875 -0.359375 1.84375 -0.265625 1.09375 -0.265625 L 0.8125 -0.265625 L 0.8125 0 C 1.140625 -0.03125 1.828125 -0.03125 2.171875 -0.03125 C 2.53125 -0.03125 3.234375 -0.03125 3.5625 0 L 3.5625 -0.265625 L 3.28125 -0.265625 C 2.515625 -0.265625 2.5 -0.359375 2.5 -0.65625 Z M 2.5 -5.0625 "/>
</g>
<g id="glyph-1778740520414658--0-1">
<path d="M 3.890625 -2.53125 C 3.890625 -3.390625 3.796875 -3.90625 3.546875 -4.40625 C 3.1875 -5.109375 2.546875 -5.28125 2.109375 -5.28125 C 1.109375 -5.28125 0.734375 -4.546875 0.625 -4.3125 C 0.34375 -3.734375 0.328125 -2.953125 0.328125 -2.53125 C 0.328125 -2.015625 0.34375 -1.203125 0.734375 -0.578125 C 1.09375 0.015625 1.6875 0.171875 2.109375 0.171875 C 2.484375 0.171875 3.171875 0.046875 3.578125 -0.734375 C 3.859375 -1.3125 3.890625 -2.015625 3.890625 -2.53125 Z M 2.109375 -0.0625 C 1.84375 -0.0625 1.28125 -0.1875 1.125 -1.015625 C 1.03125 -1.46875 1.03125 -2.21875 1.03125 -2.625 C 1.03125 -3.1875 1.03125 -3.734375 1.125 -4.171875 C 1.28125 -4.984375 1.90625 -5.0625 2.109375 -5.0625 C 2.375 -5.0625 2.921875 -4.9375 3.078125 -4.203125 C 3.1875 -3.765625 3.1875 -3.171875 3.1875 -2.625 C 3.1875 -2.15625 3.1875 -1.453125 3.078125 -1 C 2.921875 -0.171875 2.375 -0.0625 2.109375 -0.0625 Z M 2.109375 -0.0625 "/>
</g>
<g id="glyph-1778740520414658--1-0">
<path d="M 3.28125 -1.90625 C 3.28125 -2.34375 3.28125 -3.96875 1.828125 -3.96875 C 0.359375 -3.96875 0.359375 -2.34375 0.359375 -1.90625 C 0.359375 -1.46875 0.359375 0.125 1.828125 0.125 C 3.28125 0.125 3.28125 -1.46875 3.28125 -1.90625 Z M 1.828125 -0.0625 C 1.5625 -0.0625 1.15625 -0.1875 1.015625 -0.6875 C 0.921875 -1.03125 0.921875 -1.609375 0.921875 -1.984375 C 0.921875 -2.375 0.921875 -2.84375 1.015625 -3.15625 C 1.15625 -3.703125 1.609375 -3.78125 1.828125 -3.78125 C 2.09375 -3.78125 2.484375 -3.640625 2.625 -3.1875 C 2.703125 -2.875 2.71875 -2.4375 2.71875 -1.984375 C 2.71875 -1.59375 2.71875 -1 2.609375 -0.65625 C 2.453125 -0.140625 2.015625 -0.0625 1.828125 -0.0625 Z M 1.828125 -0.0625 "/>
</g>
<g id="glyph-1778740520414658--1-1">
<path d="M 3.21875 -1.109375 L 2.984375 -1.109375 C 2.984375 -1.03125 2.921875 -0.640625 2.828125 -0.578125 C 2.78125 -0.53125 2.296875 -0.53125 2.21875 -0.53125 L 1.109375 -0.53125 L 1.875 -1.15625 C 2.078125 -1.3125 2.609375 -1.703125 2.78125 -1.875 C 2.96875 -2.0625 3.21875 -2.359375 3.21875 -2.78125 C 3.21875 -3.53125 2.53125 -3.96875 1.734375 -3.96875 C 0.96875 -3.96875 0.4375 -3.46875 0.4375 -2.90625 C 0.4375 -2.59375 0.6875 -2.5625 0.75 -2.5625 C 0.90625 -2.5625 1.078125 -2.671875 1.078125 -2.890625 C 1.078125 -3.015625 1 -3.203125 0.734375 -3.203125 C 0.875 -3.515625 1.234375 -3.734375 1.640625 -3.734375 C 2.28125 -3.734375 2.609375 -3.265625 2.609375 -2.78125 C 2.609375 -2.359375 2.328125 -1.921875 1.90625 -1.546875 L 0.5 -0.25 C 0.4375 -0.1875 0.4375 -0.1875 0.4375 0 L 3.03125 0 Z M 3.21875 -1.109375 "/>
</g>
<g id="glyph-1778740520414658--2-0">
<path d="M 5.25 -3.421875 C 5.3125 -3.671875 5.4375 -3.8125 5.890625 -3.84375 C 5.921875 -3.84375 6.015625 -3.84375 6.015625 -3.984375 C 6.015625 -4.046875 5.984375 -4.078125 5.921875 -4.078125 C 5.78125 -4.078125 5.4375 -4.046875 5.28125 -4.046875 L 4.953125 -4.0625 C 4.859375 -4.0625 4.734375 -4.078125 4.625 -4.078125 C 4.53125 -4.078125 4.5 -4 4.5 -3.921875 C 4.5 -3.84375 4.59375 -3.84375 4.640625 -3.84375 C 4.921875 -3.828125 5.03125 -3.75 5.03125 -3.59375 C 5.03125 -3.578125 5.03125 -3.546875 5.015625 -3.5 L 4.359375 -0.890625 L 2.734375 -3.96875 C 2.671875 -4.078125 2.671875 -4.078125 2.53125 -4.078125 L 1.671875 -4.078125 C 1.546875 -4.078125 1.46875 -4.078125 1.46875 -3.921875 C 1.46875 -3.84375 1.546875 -3.84375 1.6875 -3.84375 C 1.71875 -3.84375 1.921875 -3.84375 2.0625 -3.8125 L 1.28125 -0.65625 C 1.21875 -0.4375 1.125 -0.25 0.625 -0.234375 C 0.5625 -0.234375 0.5 -0.203125 0.5 -0.078125 C 0.5 -0.0625 0.515625 0 0.609375 0 C 0.75 0 1.09375 -0.03125 1.234375 -0.03125 L 1.5625 -0.015625 C 1.671875 -0.015625 1.796875 0 1.90625 0 C 2.03125 0 2.03125 -0.125 2.03125 -0.15625 C 2.015625 -0.234375 1.953125 -0.234375 1.890625 -0.234375 C 1.609375 -0.25 1.5 -0.328125 1.5 -0.484375 C 1.5 -0.515625 1.5 -0.53125 1.515625 -0.609375 L 2.28125 -3.65625 L 4.15625 -0.09375 C 4.203125 -0.015625 4.203125 0 4.296875 0 C 4.390625 0 4.40625 -0.03125 4.421875 -0.140625 Z M 5.25 -3.421875 "/>
</g>
<g id="glyph-1778740520414658--2-1">
<path d="M 3.09375 -1.921875 C 3.125 -2.046875 3.1875 -2.28125 3.1875 -2.328125 C 3.1875 -2.453125 3.078125 -2.515625 2.984375 -2.515625 C 2.8125 -2.515625 2.703125 -2.359375 2.6875 -2.28125 C 2.609375 -2.40625 2.40625 -2.625 2.03125 -2.625 C 1.265625 -2.625 0.453125 -1.828125 0.453125 -0.953125 C 0.453125 -0.3125 0.90625 0.0625 1.40625 0.0625 C 1.8125 0.0625 2.15625 -0.21875 2.296875 -0.359375 C 2.40625 0.015625 2.8125 0.0625 2.9375 0.0625 C 3.15625 0.0625 3.3125 -0.0625 3.421875 -0.25 C 3.578125 -0.484375 3.65625 -0.828125 3.65625 -0.859375 C 3.65625 -0.875 3.65625 -0.9375 3.546875 -0.9375 C 3.453125 -0.9375 3.4375 -0.90625 3.421875 -0.8125 C 3.328125 -0.4375 3.203125 -0.140625 2.96875 -0.140625 C 2.765625 -0.140625 2.75 -0.359375 2.75 -0.4375 C 2.75 -0.515625 2.8125 -0.765625 2.84375 -0.90625 Z M 2.328125 -0.78125 C 2.296875 -0.671875 2.296875 -0.65625 2.203125 -0.578125 C 1.875 -0.203125 1.578125 -0.140625 1.421875 -0.140625 C 1.1875 -0.140625 0.953125 -0.296875 0.953125 -0.71875 C 0.953125 -0.96875 1.078125 -1.546875 1.265625 -1.890625 C 1.453125 -2.21875 1.75 -2.4375 2.046875 -2.4375 C 2.484375 -2.4375 2.609375 -1.96875 2.609375 -1.921875 L 2.578125 -1.84375 Z M 2.328125 -0.78125 "/>
</g>
<g id="glyph-1778740520414658--3-0">
<path d="M 3.203125 -4.0625 L 5.03125 -4.0625 C 5.171875 -4.0625 5.5625 -4.0625 5.5625 -4.421875 C 5.5625 -4.6875 5.328125 -4.6875 5.125 -4.6875 L 2.078125 -4.6875 C 1.859375 -4.6875 1.4375 -4.6875 0.953125 -4.171875 C 0.59375 -3.78125 0.296875 -3.265625 0.296875 -3.203125 C 0.296875 -3.1875 0.296875 -3.09375 0.421875 -3.09375 C 0.515625 -3.09375 0.53125 -3.125 0.59375 -3.21875 C 1.125 -4.0625 1.75 -4.0625 1.984375 -4.0625 L 2.875 -4.0625 L 1.8125 -0.5625 C 1.765625 -0.4375 1.703125 -0.203125 1.703125 -0.15625 C 1.703125 -0.046875 1.78125 0.125 2.015625 0.125 C 2.375 0.125 2.4375 -0.171875 2.46875 -0.34375 Z M 3.203125 -4.0625 "/>
</g>
<g id="glyph-1778740520414658--4-0">
<path d="M 3.546875 2.65625 C 3.546875 2.625 3.546875 2.59375 3.359375 2.40625 C 2.265625 1.3125 1.65625 -0.484375 1.65625 -2.71875 C 1.65625 -4.84375 2.171875 -6.65625 3.4375 -7.953125 C 3.546875 -8.046875 3.546875 -8.078125 3.546875 -8.109375 C 3.546875 -8.171875 3.5 -8.1875 3.453125 -8.1875 C 3.3125 -8.1875 2.40625 -7.40625 1.875 -6.328125 C 1.328125 -5.234375 1.078125 -4.0625 1.078125 -2.71875 C 1.078125 -1.75 1.21875 -0.453125 1.796875 0.71875 C 2.4375 2.03125 3.328125 2.734375 3.453125 2.734375 C 3.5 2.734375 3.546875 2.71875 3.546875 2.65625 Z M 3.546875 2.65625 "/>
</g>
<g id="glyph-1778740520414658--4-1">
<path d="M 3.84375 -1.390625 C 3.84375 -1.984375 3.484375 -2.328125 3.390625 -2.421875 C 3 -2.765625 2.703125 -2.828125 1.984375 -2.953125 C 1.65625 -3.03125 0.859375 -3.171875 0.859375 -3.828125 C 0.859375 -4.171875 1.078125 -4.671875 2.0625 -4.671875 C 3.25 -4.671875 3.3125 -3.65625 3.34375 -3.3125 C 3.359375 -3.234375 3.421875 -3.234375 3.46875 -3.234375 C 3.578125 -3.234375 3.578125 -3.28125 3.578125 -3.484375 L 3.578125 -4.625 C 3.578125 -4.8125 3.578125 -4.875 3.46875 -4.875 C 3.390625 -4.875 3.171875 -4.625 3.109375 -4.53125 C 2.765625 -4.8125 2.421875 -4.875 2.078125 -4.875 C 0.75 -4.875 0.359375 -4.15625 0.359375 -3.546875 C 0.359375 -3.421875 0.359375 -3.046875 0.78125 -2.671875 C 1.125 -2.359375 1.5 -2.28125 2 -2.1875 C 2.59375 -2.0625 2.734375 -2.03125 3.015625 -1.8125 C 3.21875 -1.65625 3.359375 -1.40625 3.359375 -1.109375 C 3.359375 -0.640625 3.078125 -0.109375 2.125 -0.109375 C 1.390625 -0.109375 0.875 -0.53125 0.640625 -1.609375 C 0.59375 -1.8125 0.578125 -1.828125 0.578125 -1.828125 C 0.5625 -1.875 0.515625 -1.875 0.484375 -1.875 C 0.359375 -1.875 0.359375 -1.828125 0.359375 -1.625 L 0.359375 -0.140625 C 0.359375 0.046875 0.359375 0.109375 0.46875 0.109375 C 0.53125 0.109375 0.53125 0.09375 0.71875 -0.125 C 0.78125 -0.203125 0.78125 -0.234375 0.9375 -0.40625 C 1.359375 0.109375 1.9375 0.109375 2.125 0.109375 C 3.28125 0.109375 3.84375 -0.53125 3.84375 -1.390625 Z M 3.84375 -1.390625 "/>
</g>
<g id="glyph-1778740520414658--4-2">
<path d="M 3.078125 -2.71875 C 3.078125 -3.546875 2.96875 -4.90625 2.359375 -6.171875 C 1.71875 -7.484375 0.8125 -8.1875 0.703125 -8.1875 C 0.65625 -8.1875 0.59375 -8.171875 0.59375 -8.109375 C 0.59375 -8.078125 0.59375 -8.046875 0.78125 -7.859375 C 1.875 -6.765625 2.484375 -4.953125 2.484375 -2.734375 C 2.484375 -0.609375 1.984375 1.21875 0.703125 2.5 C 0.59375 2.59375 0.59375 2.625 0.59375 2.65625 C 0.59375 2.71875 0.65625 2.734375 0.703125 2.734375 C 0.84375 2.734375 1.734375 1.953125 2.265625 0.890625 C 2.828125 -0.234375 3.078125 -1.40625 3.078125 -2.71875 Z M 3.078125 -2.71875 "/>
</g>
<g id="glyph-1778740520414658--5-0">
<path d="M -4.0625 -5.640625 C -4.0625 -5.78125 -4.0625 -6.171875 -4.421875 -6.171875 C -4.6875 -6.171875 -4.6875 -5.9375 -4.6875 -5.734375 L -4.6875 -3.265625 C -4.6875 -1.625 -2.890625 -0.40625 -1.59375 -0.40625 C -0.640625 -0.40625 0.125 -1.0625 0.125 -2.046875 C 0.125 -3.328125 -1.203125 -4.78125 -2.875 -4.78125 C -3.0625 -4.78125 -3.578125 -4.78125 -4.0625 -4.4375 Z M -0.125 -2.0625 C -0.125 -1.515625 -0.515625 -1.09375 -1.296875 -1.09375 C -1.625 -1.09375 -2.515625 -1.21875 -3.15625 -1.59375 C -3.90625 -2.0625 -4.0625 -2.703125 -4.0625 -3.078125 C -4.0625 -3.984375 -3.34375 -4.078125 -3 -4.078125 C -2.484375 -4.078125 -1.59375 -3.859375 -1.046875 -3.484375 C -0.40625 -3.0625 -0.125 -2.484375 -0.125 -2.0625 Z M -0.125 -2.0625 "/>
</g>
<g id="glyph-1778740520414658--5-1">
<path d="M -4.140625 -5.28125 C -4.296875 -5.328125 -4.3125 -5.328125 -4.390625 -5.328125 C -4.59375 -5.328125 -4.6875 -5.171875 -4.6875 -5.015625 C -4.6875 -4.90625 -4.625 -4.734375 -4.453125 -4.625 C -4.40625 -4.609375 -4.0625 -4.53125 -3.875 -4.484375 C -3.59375 -4.40625 -3.296875 -4.328125 -3 -4.265625 L -1.046875 -3.78125 C -0.875 -3.734375 -0.125 -3.265625 -0.125 -2.546875 C -0.125 -1.984375 -0.59375 -1.875 -1 -1.875 C -1.5 -1.875 -2.171875 -2.0625 -3.125 -2.421875 C -3.578125 -2.59375 -3.703125 -2.640625 -3.921875 -2.640625 C -4.40625 -2.640625 -4.8125 -2.296875 -4.8125 -1.75 C -4.8125 -0.71875 -3.234375 -0.3125 -3.125 -0.3125 C -3.015625 -0.3125 -3.015625 -0.421875 -3.015625 -0.453125 C -3.015625 -0.546875 -3.046875 -0.5625 -3.21875 -0.625 C -4.234375 -0.90625 -4.5625 -1.34375 -4.5625 -1.71875 C -4.5625 -1.8125 -4.5625 -1.984375 -4.21875 -1.984375 C -3.953125 -1.984375 -3.671875 -1.875 -3.453125 -1.8125 C -2.3125 -1.375 -1.6875 -1.171875 -1.171875 -1.171875 C -0.203125 -1.171875 0.125 -1.859375 0.125 -2.5 C 0.125 -2.921875 -0.0625 -3.296875 -0.375 -3.59375 C 0.203125 -3.453125 0.734375 -3.328125 1.3125 -2.890625 C 1.671875 -2.609375 1.984375 -2.203125 1.984375 -1.703125 C 1.984375 -1.546875 1.953125 -1.0625 1.53125 -0.875 C 1.53125 -1.046875 1.53125 -1.1875 1.40625 -1.34375 C 1.3125 -1.453125 1.15625 -1.5625 0.953125 -1.5625 C 0.625 -1.5625 0.578125 -1.265625 0.578125 -1.15625 C 0.578125 -0.90625 0.75 -0.546875 1.28125 -0.546875 C 1.828125 -0.546875 2.234375 -1.015625 2.234375 -1.703125 C 2.234375 -2.8125 1.234375 -3.9375 0.015625 -4.234375 Z M -4.140625 -5.28125 "/>
</g>
<g id="glyph-1778740520414658--5-2">
<path d="M -4.0625 -3.203125 L -4.0625 -5.03125 C -4.0625 -5.171875 -4.0625 -5.5625 -4.421875 -5.5625 C -4.6875 -5.5625 -4.6875 -5.328125 -4.6875 -5.125 L -4.6875 -2.078125 C -4.6875 -1.859375 -4.6875 -1.4375 -4.171875 -0.953125 C -3.78125 -0.59375 -3.265625 -0.296875 -3.203125 -0.296875 C -3.1875 -0.296875 -3.09375 -0.296875 -3.09375 -0.421875 C -3.09375 -0.515625 -3.125 -0.53125 -3.21875 -0.59375 C -4.0625 -1.125 -4.0625 -1.75 -4.0625 -1.984375 L -4.0625 -2.875 L -0.5625 -1.8125 C -0.4375 -1.765625 -0.203125 -1.703125 -0.15625 -1.703125 C -0.046875 -1.703125 0.125 -1.78125 0.125 -2.015625 C 0.125 -2.375 -0.171875 -2.4375 -0.34375 -2.46875 Z M -4.0625 -3.203125 "/>
</g>
<g id="glyph-1778740520414658--6-0">
<path d="M 1.484375 -8.015625 L 1.25 -8.015625 L 1.25 0 L 1.484375 0 Z M 1.484375 -8.015625 "/>
</g>
<g id="glyph-1778740520414658--7-0">
<path d="M 2.609375 -3.59375 C 2.578125 -3.59375 2.5625 -3.59375 2.375 -3.421875 C 1 -2.0625 -1.0625 -1.703125 -2.71875 -1.703125 C -4.609375 -1.703125 -6.5 -2.125 -7.859375 -3.453125 C -8 -3.59375 -8.015625 -3.59375 -8.046875 -3.59375 C -8.125 -3.59375 -8.15625 -3.5625 -8.15625 -3.484375 C -8.15625 -3.375 -7.421875 -2.40625 -6.03125 -1.765625 C -4.84375 -1.203125 -3.625 -1.078125 -2.71875 -1.078125 C -1.875 -1.078125 -0.546875 -1.203125 0.671875 -1.796875 C 2.015625 -2.453125 2.71875 -3.375 2.71875 -3.484375 C 2.71875 -3.5625 2.6875 -3.59375 2.609375 -3.59375 Z M 2.609375 -3.59375 "/>
</g>
<g id="glyph-1778740520414658--7-1">
<path d="M -2.71875 -3.140625 C -3.5625 -3.140625 -4.890625 -3.015625 -6.109375 -2.421875 C -7.453125 -1.765625 -8.15625 -0.84375 -8.15625 -0.734375 C -8.15625 -0.65625 -8.109375 -0.625 -8.046875 -0.625 C -8.015625 -0.625 -8 -0.625 -7.796875 -0.828125 C -6.71875 -1.890625 -4.984375 -2.515625 -2.71875 -2.515625 C -0.859375 -2.515625 1.0625 -2.109375 2.421875 -0.765625 C 2.5625 -0.625 2.578125 -0.625 2.609375 -0.625 C 2.671875 -0.625 2.71875 -0.65625 2.71875 -0.734375 C 2.71875 -0.84375 1.984375 -1.8125 0.59375 -2.453125 C -0.59375 -3.015625 -1.8125 -3.140625 -2.71875 -3.140625 Z M -2.71875 -3.140625 "/>
</g>
<g id="glyph-1778740520414658--8-0">
<path d="M 9.328125 -6.328125 L 9.078125 -9.421875 L 0.734375 -9.421875 L 0.484375 -6.328125 L 0.796875 -6.328125 C 0.984375 -8.53125 1.109375 -9.03125 3.3125 -9.03125 C 3.5625 -9.03125 3.953125 -9.03125 4.0625 -9 C 4.34375 -8.953125 4.359375 -8.78125 4.359375 -8.46875 L 4.359375 -1.078125 C 4.359375 -0.59375 4.359375 -0.40625 2.984375 -0.40625 L 2.484375 -0.40625 L 2.484375 0 C 2.9375 -0.03125 4.359375 -0.03125 4.90625 -0.03125 C 5.453125 -0.03125 6.890625 -0.03125 7.34375 0 L 7.34375 -0.40625 L 6.84375 -0.40625 C 5.484375 -0.40625 5.484375 -0.59375 5.484375 -1.078125 L 5.484375 -8.46875 C 5.484375 -8.8125 5.5 -8.9375 5.734375 -9 C 5.84375 -9.03125 6.25 -9.03125 6.515625 -9.03125 C 8.703125 -9.03125 8.828125 -8.53125 9.03125 -6.328125 Z M 9.328125 -6.328125 "/>
</g>
<g id="glyph-1778740520414658--8-1">
<path d="M 7.25 0 L 7.25 -0.40625 C 6.546875 -0.40625 6.203125 -0.40625 6.1875 -0.828125 L 6.1875 -3.375 C 6.1875 -4.671875 6.1875 -5.0625 5.875 -5.5 C 5.46875 -6.046875 4.8125 -6.125 4.34375 -6.125 C 3.140625 -6.125 2.59375 -5.234375 2.390625 -4.796875 L 2.375 -4.796875 L 2.375 -9.65625 L 0.4375 -9.5 L 0.4375 -9.09375 C 1.390625 -9.09375 1.5 -9 1.5 -8.3125 L 1.5 -1.03125 C 1.5 -0.40625 1.34375 -0.40625 0.4375 -0.40625 L 0.4375 0 C 0.8125 -0.03125 1.5625 -0.03125 1.953125 -0.03125 C 2.34375 -0.03125 3.09375 -0.03125 3.46875 0 L 3.46875 -0.40625 C 2.578125 -0.40625 2.40625 -0.40625 2.40625 -1.03125 L 2.40625 -3.609375 C 2.40625 -5.078125 3.359375 -5.859375 4.234375 -5.859375 C 5.09375 -5.859375 5.28125 -5.140625 5.28125 -4.296875 L 5.28125 -1.03125 C 5.28125 -0.40625 5.125 -0.40625 4.234375 -0.40625 L 4.234375 0 C 4.59375 -0.03125 5.34375 -0.03125 5.734375 -0.03125 C 6.125 -0.03125 6.890625 -0.03125 7.25 0 Z M 7.25 0 "/>
</g>
<g id="glyph-1778740520414658--8-2">
<path d="M 4.90625 -5.328125 C 4.90625 -5.75 4.53125 -6.125 3.9375 -6.125 C 2.75 -6.125 2.34375 -4.859375 2.265625 -4.59375 L 2.25 -4.59375 L 2.25 -6.125 L 0.390625 -5.984375 L 0.390625 -5.578125 C 1.328125 -5.578125 1.453125 -5.484375 1.453125 -4.796875 L 1.453125 -1.03125 C 1.453125 -0.40625 1.296875 -0.40625 0.390625 -0.40625 L 0.390625 0 C 0.78125 -0.03125 1.546875 -0.03125 1.953125 -0.03125 C 2.34375 -0.03125 3.328125 -0.03125 3.640625 0 L 3.640625 -0.40625 L 3.359375 -0.40625 C 2.34375 -0.40625 2.328125 -0.5625 2.328125 -1.0625 L 2.328125 -3.234375 C 2.328125 -4.59375 2.875 -5.859375 3.953125 -5.859375 C 4.0625 -5.859375 4.09375 -5.859375 4.140625 -5.84375 C 4.03125 -5.78125 3.8125 -5.703125 3.8125 -5.328125 C 3.8125 -4.921875 4.125 -4.765625 4.359375 -4.765625 C 4.625 -4.765625 4.90625 -4.953125 4.90625 -5.328125 Z M 4.90625 -5.328125 "/>
</g>
<g id="glyph-1778740520414658--8-3">
<path d="M 5.65625 -1.65625 C 5.65625 -1.734375 5.59375 -1.796875 5.5 -1.796875 C 5.390625 -1.796875 5.375 -1.71875 5.34375 -1.65625 C 4.984375 -0.484375 4.046875 -0.171875 3.46875 -0.171875 C 2.875 -0.171875 1.46875 -0.5625 1.46875 -2.96875 L 1.46875 -3.21875 L 5.328125 -3.21875 C 5.625 -3.21875 5.65625 -3.21875 5.65625 -3.484375 C 5.65625 -4.890625 4.90625 -6.203125 3.21875 -6.203125 C 1.640625 -6.203125 0.421875 -4.765625 0.421875 -3.046875 C 0.421875 -1.203125 1.828125 0.140625 3.375 0.140625 C 5.03125 0.140625 5.65625 -1.359375 5.65625 -1.65625 Z M 4.796875 -3.484375 L 1.484375 -3.484375 C 1.59375 -5.671875 2.828125 -5.921875 3.21875 -5.921875 C 4.703125 -5.921875 4.78125 -3.96875 4.796875 -3.484375 Z M 4.796875 -3.484375 "/>
</g>
<g id="glyph-1778740520414658--8-4">
<path d="M 3.765625 -2.625 L 3.765625 -3.375 L 0.15625 -3.375 L 0.15625 -2.625 Z M 3.765625 -2.625 "/>
</g>
<g id="glyph-1778740520414658--8-5">
<path d="M 5.640625 -1.65625 C 5.640625 -1.78125 5.546875 -1.78125 5.5 -1.78125 C 5.375 -1.78125 5.375 -1.734375 5.328125 -1.578125 C 5.015625 -0.578125 4.265625 -0.171875 3.515625 -0.171875 C 2.671875 -0.171875 1.546875 -0.90625 1.546875 -3.015625 C 1.546875 -5.328125 2.71875 -5.890625 3.421875 -5.890625 C 3.953125 -5.890625 4.71875 -5.6875 5.03125 -5.140625 C 4.859375 -5.140625 4.359375 -5.140625 4.359375 -4.578125 C 4.359375 -4.234375 4.59375 -4 4.921875 -4 C 5.25 -4 5.5 -4.203125 5.5 -4.609375 C 5.5 -5.53125 4.53125 -6.203125 3.40625 -6.203125 C 1.78125 -6.203125 0.484375 -4.75 0.484375 -3 C 0.484375 -1.21875 1.828125 0.140625 3.390625 0.140625 C 5.234375 0.140625 5.640625 -1.53125 5.640625 -1.65625 Z M 5.640625 -1.65625 "/>
</g>
<g id="glyph-1778740520414658--8-6">
<path d="M 6.390625 -2.96875 C 6.390625 -4.765625 5.015625 -6.203125 3.40625 -6.203125 C 1.734375 -6.203125 0.421875 -4.734375 0.421875 -2.96875 C 0.421875 -1.203125 1.8125 0.140625 3.390625 0.140625 C 5.03125 0.140625 6.390625 -1.21875 6.390625 -2.96875 Z M 5.328125 -3.09375 C 5.328125 -2.609375 5.328125 -1.75 4.96875 -1.09375 C 4.578125 -0.4375 3.9375 -0.171875 3.40625 -0.171875 C 2.890625 -0.171875 2.265625 -0.390625 1.859375 -1.078125 C 1.484375 -1.703125 1.46875 -2.515625 1.46875 -3.09375 C 1.46875 -3.625 1.46875 -4.484375 1.90625 -5.109375 C 2.296875 -5.703125 2.90625 -5.921875 3.390625 -5.921875 C 3.9375 -5.921875 4.515625 -5.671875 4.890625 -5.125 C 5.328125 -4.484375 5.328125 -3.609375 5.328125 -3.09375 Z M 5.328125 -3.09375 "/>
</g>
<g id="glyph-1778740520414658--8-7">
<path d="M 7.25 0 L 7.25 -0.40625 C 6.546875 -0.40625 6.203125 -0.40625 6.1875 -0.828125 L 6.1875 -3.375 C 6.1875 -4.671875 6.1875 -5.0625 5.875 -5.5 C 5.46875 -6.046875 4.8125 -6.125 4.34375 -6.125 C 2.984375 -6.125 2.46875 -4.984375 2.34375 -4.703125 L 2.34375 -6.125 L 0.4375 -5.984375 L 0.4375 -5.578125 C 1.390625 -5.578125 1.5 -5.484375 1.5 -4.796875 L 1.5 -1.03125 C 1.5 -0.40625 1.34375 -0.40625 0.4375 -0.40625 L 0.4375 0 C 0.8125 -0.03125 1.5625 -0.03125 1.953125 -0.03125 C 2.34375 -0.03125 3.09375 -0.03125 3.46875 0 L 3.46875 -0.40625 C 2.578125 -0.40625 2.40625 -0.40625 2.40625 -1.03125 L 2.40625 -3.609375 C 2.40625 -5.078125 3.359375 -5.859375 4.234375 -5.859375 C 5.09375 -5.859375 5.28125 -5.140625 5.28125 -4.296875 L 5.28125 -1.03125 C 5.28125 -0.40625 5.125 -0.40625 4.234375 -0.40625 L 4.234375 0 C 4.59375 -0.03125 5.34375 -0.03125 5.734375 -0.03125 C 6.125 -0.03125 6.890625 -0.03125 7.25 0 Z M 7.25 0 "/>
</g>
<g id="glyph-1778740520414658--8-8">
<path d="M 7.15625 0 L 7.15625 -0.40625 C 6.21875 -0.40625 6.109375 -0.5 6.109375 -1.1875 L 6.109375 -9.65625 L 4.171875 -9.5 L 4.171875 -9.09375 C 5.125 -9.09375 5.234375 -9 5.234375 -8.3125 L 5.234375 -5.25 C 4.9375 -5.640625 4.34375 -6.125 3.484375 -6.125 C 1.875 -6.125 0.484375 -4.765625 0.484375 -2.984375 C 0.484375 -1.21875 1.8125 0.140625 3.34375 0.140625 C 4.390625 0.140625 5 -0.5625 5.203125 -0.828125 L 5.203125 0.140625 Z M 5.203125 -1.625 C 5.203125 -1.375 5.203125 -1.328125 5 -1.03125 C 4.671875 -0.546875 4.109375 -0.140625 3.40625 -0.140625 C 3.046875 -0.140625 1.546875 -0.28125 1.546875 -2.96875 C 1.546875 -3.984375 1.703125 -4.53125 2.015625 -5 C 2.296875 -5.421875 2.84375 -5.859375 3.546875 -5.859375 C 4.40625 -5.859375 4.890625 -5.234375 5.03125 -5 C 5.203125 -4.765625 5.203125 -4.734375 5.203125 -4.484375 Z M 5.203125 -1.625 "/>
</g>
<g id="glyph-1778740520414658--8-9">
<path d="M 6.59375 -1.234375 L 6.59375 -2.015625 L 6.28125 -2.015625 L 6.28125 -1.234375 C 6.28125 -0.4375 5.953125 -0.328125 5.75 -0.328125 C 5.234375 -0.328125 5.234375 -1.078125 5.234375 -1.28125 L 5.234375 -3.71875 C 5.234375 -4.46875 5.234375 -5.015625 4.609375 -5.5625 C 4.125 -6 3.5 -6.203125 2.890625 -6.203125 C 1.75 -6.203125 0.875 -5.453125 0.875 -4.546875 C 0.875 -4.140625 1.140625 -3.953125 1.453125 -3.953125 C 1.796875 -3.953125 2.03125 -4.1875 2.03125 -4.515625 C 2.03125 -5.09375 1.53125 -5.09375 1.328125 -5.09375 C 1.640625 -5.671875 2.3125 -5.921875 2.859375 -5.921875 C 3.5 -5.921875 4.328125 -5.390625 4.328125 -4.140625 L 4.328125 -3.59375 C 1.53125 -3.546875 0.46875 -2.375 0.46875 -1.3125 C 0.46875 -0.203125 1.75 0.140625 2.59375 0.140625 C 3.515625 0.140625 4.140625 -0.421875 4.40625 -1.078125 C 4.46875 -0.4375 4.890625 0.0625 5.5 0.0625 C 5.78125 0.0625 6.59375 -0.125 6.59375 -1.234375 Z M 4.328125 -1.953125 C 4.328125 -0.59375 3.3125 -0.140625 2.71875 -0.140625 C 2.03125 -0.140625 1.453125 -0.640625 1.453125 -1.3125 C 1.453125 -3.140625 3.828125 -3.3125 4.328125 -3.34375 Z M 4.328125 -1.953125 "/>
</g>
<g id="glyph-1778740520414658--8-10">
<path d="M 4.53125 -1.71875 L 4.53125 -2.515625 L 4.234375 -2.515625 L 4.234375 -1.75 C 4.234375 -0.75 3.828125 -0.171875 3.28125 -0.171875 C 2.34375 -0.171875 2.34375 -1.453125 2.34375 -1.703125 L 2.34375 -5.59375 L 4.296875 -5.59375 L 4.296875 -6 L 2.34375 -6 L 2.34375 -8.546875 L 2.03125 -8.546875 C 2.015625 -7.25 1.515625 -5.90625 0.25 -5.875 L 0.25 -5.59375 L 1.4375 -5.59375 L 1.4375 -1.71875 C 1.4375 -0.1875 2.46875 0.140625 3.203125 0.140625 C 4.078125 0.140625 4.53125 -0.71875 4.53125 -1.71875 Z M 4.53125 -1.71875 "/>
</g>
<g id="glyph-1778740520414658--8-11">
<path d="M 2.5625 -5.328125 C 2.5625 -5.703125 2.234375 -6 1.890625 -6 C 1.484375 -6 1.203125 -5.671875 1.203125 -5.328125 C 1.203125 -4.90625 1.5625 -4.640625 1.875 -4.640625 C 2.25 -4.640625 2.5625 -4.9375 2.5625 -5.328125 Z M 2.5625 -0.6875 C 2.5625 -1.0625 2.234375 -1.34375 1.890625 -1.34375 C 1.484375 -1.34375 1.203125 -1.03125 1.203125 -0.6875 C 1.203125 -0.265625 1.5625 0 1.875 0 C 2.25 0 2.5625 -0.296875 2.5625 -0.6875 Z M 2.5625 -0.6875 "/>
</g>
<g id="glyph-1778740520414658--8-12">
<path d="M 6.921875 -5.59375 L 6.921875 -6 C 6.515625 -5.96875 6.328125 -5.96875 5.890625 -5.96875 L 4.75 -6 L 4.75 -5.59375 C 5.34375 -5.5625 5.40625 -5.140625 5.40625 -5 C 5.40625 -4.859375 5.375 -4.796875 5.3125 -4.625 L 3.890625 -1.046875 L 2.34375 -4.96875 C 2.265625 -5.15625 2.25 -5.15625 2.25 -5.234375 C 2.25 -5.59375 2.78125 -5.59375 3.03125 -5.59375 L 3.03125 -6 C 2.6875 -5.96875 1.953125 -5.96875 1.578125 -5.96875 L 0.25 -6 L 0.25 -5.59375 C 1.03125 -5.59375 1.171875 -5.53125 1.328125 -5.109375 L 3.328125 -0.125 C 3.390625 0.0625 3.421875 0.140625 3.59375 0.140625 C 3.6875 0.140625 3.765625 0.109375 3.859375 -0.125 L 5.671875 -4.671875 C 5.796875 -4.984375 6.03125 -5.578125 6.921875 -5.59375 Z M 6.921875 -5.59375 "/>
</g>
<g id="glyph-1778740520414658--8-13">
<path d="M 4.890625 -1.765625 C 4.890625 -2.515625 4.4375 -2.96875 4.3125 -3.09375 C 3.8125 -3.515625 3.4375 -3.609375 2.515625 -3.765625 C 2.09375 -3.859375 1.078125 -4.046875 1.078125 -4.875 C 1.078125 -5.3125 1.375 -5.953125 2.625 -5.953125 C 4.140625 -5.953125 4.234375 -4.65625 4.25 -4.234375 C 4.265625 -4.109375 4.359375 -4.109375 4.40625 -4.109375 C 4.5625 -4.109375 4.5625 -4.1875 4.5625 -4.4375 L 4.5625 -5.875 C 4.5625 -6.125 4.5625 -6.203125 4.421875 -6.203125 C 4.3125 -6.203125 4.046875 -5.890625 3.953125 -5.765625 C 3.515625 -6.125 3.09375 -6.203125 2.640625 -6.203125 C 0.953125 -6.203125 0.453125 -5.28125 0.453125 -4.515625 C 0.453125 -4.359375 0.453125 -3.875 0.984375 -3.390625 C 1.4375 -3 1.90625 -2.90625 2.546875 -2.78125 C 3.3125 -2.625 3.484375 -2.59375 3.84375 -2.3125 C 4.09375 -2.09375 4.265625 -1.796875 4.265625 -1.40625 C 4.265625 -0.8125 3.921875 -0.140625 2.703125 -0.140625 C 1.78125 -0.140625 1.109375 -0.671875 0.8125 -2.0625 C 0.75 -2.3125 0.734375 -2.34375 0.734375 -2.34375 C 0.703125 -2.390625 0.65625 -2.390625 0.609375 -2.390625 C 0.453125 -2.390625 0.453125 -2.328125 0.453125 -2.078125 L 0.453125 -0.1875 C 0.453125 0.0625 0.453125 0.140625 0.59375 0.140625 C 0.671875 0.140625 0.6875 0.125 0.921875 -0.171875 C 0.984375 -0.265625 0.984375 -0.296875 1.203125 -0.515625 C 1.71875 0.140625 2.46875 0.140625 2.71875 0.140625 C 4.171875 0.140625 4.890625 -0.671875 4.890625 -1.765625 Z M 4.890625 -1.765625 "/>
</g>
<g id="glyph-1778740520414658--8-14">
<path d="M 6.609375 -5.640625 C 6.609375 -5.890625 6.40625 -6.28125 5.921875 -6.28125 C 5.203125 -6.28125 4.65625 -5.84375 4.46875 -5.625 C 4.046875 -5.953125 3.5625 -6.125 3.03125 -6.125 C 1.78125 -6.125 0.84375 -5.1875 0.84375 -4.109375 C 0.84375 -3.328125 1.328125 -2.8125 1.46875 -2.6875 C 1.3125 -2.46875 1.0625 -2.078125 1.0625 -1.53125 C 1.0625 -0.71875 1.546875 -0.375 1.65625 -0.3125 C 1.015625 -0.125 0.375 0.375 0.375 1.09375 C 0.375 2.0625 1.6875 2.84375 3.390625 2.84375 C 5.046875 2.84375 6.421875 2.109375 6.421875 1.078125 C 6.421875 0.71875 6.328125 -0.09375 5.5 -0.53125 C 4.78125 -0.890625 4.09375 -0.890625 2.890625 -0.890625 C 2.046875 -0.890625 1.953125 -0.890625 1.703125 -1.15625 C 1.5625 -1.296875 1.4375 -1.5625 1.4375 -1.84375 C 1.4375 -2.078125 1.515625 -2.328125 1.65625 -2.515625 C 2.3125 -2.078125 2.859375 -2.078125 3.015625 -2.078125 C 4.265625 -2.078125 5.203125 -3.03125 5.203125 -4.109375 C 5.203125 -4.484375 5.09375 -5 4.640625 -5.453125 C 5.1875 -6 5.84375 -6 5.90625 -6 C 5.96875 -6 6.03125 -6 6.09375 -5.984375 C 5.953125 -5.921875 5.875 -5.78125 5.875 -5.625 C 5.875 -5.4375 6.015625 -5.265625 6.25 -5.265625 C 6.359375 -5.265625 6.609375 -5.34375 6.609375 -5.640625 Z M 4.234375 -4.109375 C 4.234375 -3.859375 4.234375 -3.296875 4 -2.921875 C 3.734375 -2.515625 3.328125 -2.375 3.03125 -2.375 C 1.8125 -2.375 1.8125 -3.78125 1.8125 -4.109375 C 1.8125 -4.359375 1.8125 -4.921875 2.046875 -5.296875 C 2.3125 -5.703125 2.71875 -5.84375 3.015625 -5.84375 C 4.234375 -5.84375 4.234375 -4.4375 4.234375 -4.109375 Z M 5.75 1.078125 C 5.75 1.90625 4.6875 2.5625 3.40625 2.5625 C 2.078125 2.5625 1.0625 1.875 1.0625 1.078125 C 1.0625 0.96875 1.078125 0.4375 1.609375 0.0625 C 1.921875 -0.125 2.046875 -0.125 3.015625 -0.125 C 4.171875 -0.125 5.75 -0.125 5.75 1.078125 Z M 5.75 1.078125 "/>
</g>
<g id="glyph-1778740520414658--8-15">
<path d="M 7.25 0 L 7.25 -0.40625 C 6.296875 -0.40625 6.1875 -0.5 6.1875 -1.1875 L 6.1875 -6.125 L 4.234375 -5.984375 L 4.234375 -5.578125 C 5.171875 -5.578125 5.28125 -5.484375 5.28125 -4.796875 L 5.28125 -2.3125 C 5.28125 -1.125 4.65625 -0.140625 3.609375 -0.140625 C 2.46875 -0.140625 2.40625 -0.796875 2.40625 -1.53125 L 2.40625 -6.125 L 0.4375 -5.984375 L 0.4375 -5.578125 C 1.5 -5.578125 1.5 -5.53125 1.5 -4.296875 L 1.5 -2.21875 C 1.5 -1.34375 1.5 -0.84375 1.921875 -0.390625 C 2.25 -0.03125 2.828125 0.140625 3.53125 0.140625 C 3.765625 0.140625 4.21875 0.140625 4.6875 -0.265625 C 5.09375 -0.578125 5.3125 -1.109375 5.3125 -1.109375 L 5.3125 0.140625 Z M 7.25 0 "/>
</g>
<g id="glyph-1778740520414658--8-16">
<path d="M 10.203125 1.890625 L 10.203125 1.578125 L 0 1.578125 L 0 1.890625 Z M 10.203125 1.890625 "/>
</g>
<g id="glyph-1778740520414658--8-17">
<path d="M 6.921875 -5.59375 L 6.921875 -6 C 6.515625 -5.96875 6.328125 -5.96875 5.875 -5.96875 L 4.75 -6 L 4.75 -5.59375 C 5.265625 -5.5625 5.390625 -5.25 5.390625 -5 C 5.390625 -4.859375 5.375 -4.796875 5.3125 -4.65625 L 3.890625 -1.15625 L 2.34375 -4.9375 C 2.265625 -5.125 2.265625 -5.234375 2.265625 -5.234375 C 2.265625 -5.59375 2.75 -5.59375 3.03125 -5.59375 L 3.03125 -6 C 2.671875 -5.96875 1.984375 -5.96875 1.59375 -5.96875 L 0.25 -6 L 0.25 -5.59375 C 1.0625 -5.59375 1.171875 -5.515625 1.34375 -5.09375 L 3.421875 0 C 2.8125 1.46875 2.8125 1.5 2.75 1.609375 C 2.515625 2.03125 2.140625 2.5625 1.515625 2.5625 C 1.078125 2.5625 0.828125 2.3125 0.828125 2.3125 C 0.828125 2.3125 1.3125 2.25 1.3125 1.765625 C 1.3125 1.4375 1.046875 1.25 0.796875 1.25 C 0.5625 1.25 0.265625 1.390625 0.265625 1.796875 C 0.265625 2.328125 0.78125 2.84375 1.515625 2.84375 C 2.296875 2.84375 2.859375 2.15625 3.21875 1.28125 L 5.625 -4.640625 C 6 -5.578125 6.65625 -5.59375 6.921875 -5.59375 Z M 6.921875 -5.59375 "/>
</g>
<g id="glyph-1778740520414658--8-18">
<path d="M 4.515625 3.375 C 4.515625 3.34375 4.515625 3.3125 4.28125 3.078125 C 2.890625 1.671875 2.109375 -0.625 2.109375 -3.46875 C 2.109375 -6.15625 2.765625 -8.484375 4.375 -10.125 C 4.515625 -10.25 4.515625 -10.28125 4.515625 -10.3125 C 4.515625 -10.40625 4.453125 -10.421875 4.390625 -10.421875 C 4.21875 -10.421875 3.078125 -9.421875 2.390625 -8.0625 C 1.6875 -6.65625 1.359375 -5.171875 1.359375 -3.46875 C 1.359375 -2.21875 1.5625 -0.5625 2.28125 0.921875 C 3.09375 2.59375 4.234375 3.484375 4.390625 3.484375 C 4.453125 3.484375 4.515625 3.46875 4.515625 3.375 Z M 4.515625 3.375 "/>
</g>
<g id="glyph-1778740520414658--8-19">
<path d="M 3.921875 -3.46875 C 3.921875 -4.515625 3.78125 -6.25 3 -7.859375 C 2.1875 -9.53125 1.046875 -10.421875 0.890625 -10.421875 C 0.828125 -10.421875 0.765625 -10.40625 0.765625 -10.3125 C 0.765625 -10.28125 0.765625 -10.25 1 -10.015625 C 2.390625 -8.609375 3.171875 -6.3125 3.171875 -3.46875 C 3.171875 -0.78125 2.515625 1.546875 0.90625 3.1875 C 0.765625 3.3125 0.765625 3.34375 0.765625 3.375 C 0.765625 3.46875 0.828125 3.484375 0.890625 3.484375 C 1.078125 3.484375 2.21875 2.484375 2.890625 1.125 C 3.609375 -0.296875 3.921875 -1.796875 3.921875 -3.46875 Z M 3.921875 -3.46875 "/>
</g>
<g id="glyph-1778740520414658--9-0">
<path d="M 7.265625 -5.390625 C 7.453125 -5.390625 7.921875 -5.390625 7.921875 -5.859375 C 7.921875 -6.171875 7.65625 -6.171875 7.40625 -6.171875 L 4.234375 -6.171875 C 2.09375 -6.171875 0.546875 -3.78125 0.546875 -2.09375 C 0.546875 -0.875 1.328125 0.140625 2.625 0.140625 C 4.3125 0.140625 6.15625 -1.671875 6.15625 -3.828125 C 6.15625 -4.375 6.03125 -4.921875 5.6875 -5.390625 Z M 2.640625 -0.140625 C 1.90625 -0.140625 1.375 -0.703125 1.375 -1.6875 C 1.375 -2.546875 1.890625 -5.390625 4 -5.390625 C 4.609375 -5.390625 5.296875 -5.09375 5.296875 -4 C 5.296875 -3.5 5.0625 -2.296875 4.5625 -1.453125 C 4.046875 -0.609375 3.28125 -0.140625 2.640625 -0.140625 Z M 2.640625 -0.140625 "/>
</g>
<g id="glyph-1778740520414658--9-1">
<path d="M 4.109375 -5.390625 L 6.484375 -5.390625 C 6.671875 -5.390625 7.140625 -5.390625 7.140625 -5.859375 C 7.140625 -6.171875 6.875 -6.171875 6.609375 -6.171875 L 2.671875 -6.171875 C 2.34375 -6.171875 1.859375 -6.171875 1.203125 -5.46875 C 0.828125 -5.046875 0.375 -4.296875 0.375 -4.203125 C 0.375 -4.125 0.4375 -4.09375 0.53125 -4.09375 C 0.625 -4.09375 0.640625 -4.140625 0.71875 -4.21875 C 1.453125 -5.390625 2.203125 -5.390625 2.5625 -5.390625 L 3.75 -5.390625 L 2.265625 -0.484375 C 2.1875 -0.265625 2.1875 -0.25 2.1875 -0.203125 C 2.1875 -0.046875 2.296875 0.15625 2.578125 0.15625 C 3.015625 0.15625 3.09375 -0.234375 3.140625 -0.4375 Z M 4.109375 -5.390625 "/>
</g>
<g id="glyph-1778740520414658--10-0">
<path d="M 5.625 -1.859375 C 5.625 -1.9375 5.625 -2.015625 5.5 -2.015625 C 5.40625 -2.015625 5.390625 -1.96875 5.375 -1.890625 C 5.3125 -0.671875 4.328125 -0.09375 3.484375 -0.09375 C 2.8125 -0.09375 1.296875 -0.515625 1.296875 -2.71875 C 1.296875 -4.859375 2.734375 -5.34375 3.484375 -5.34375 C 4.234375 -5.34375 5.15625 -4.796875 5.359375 -3.4375 C 5.375 -3.375 5.375 -3.3125 5.484375 -3.3125 C 5.625 -3.3125 5.625 -3.375 5.625 -3.515625 L 5.625 -5.390625 C 5.625 -5.515625 5.625 -5.59375 5.515625 -5.59375 C 5.46875 -5.59375 5.453125 -5.59375 5.390625 -5.484375 L 4.984375 -4.90625 C 4.6875 -5.203125 4.171875 -5.59375 3.40625 -5.59375 C 1.8125 -5.59375 0.46875 -4.3125 0.46875 -2.71875 C 0.46875 -1.109375 1.796875 0.171875 3.40625 0.171875 C 4.75 0.171875 5.625 -0.890625 5.625 -1.859375 Z M 5.625 -1.859375 "/>
</g>
<g id="glyph-1778740520414658--10-1">
<path d="M 2.125 0 L 2.125 -0.265625 C 1.609375 -0.265625 1.515625 -0.265625 1.515625 -0.625 L 1.515625 -5.515625 L 0.328125 -5.4375 L 0.328125 -5.171875 C 0.875 -5.171875 0.9375 -5.109375 0.9375 -4.71875 L 0.9375 -0.625 C 0.9375 -0.265625 0.84375 -0.265625 0.328125 -0.265625 L 0.328125 0 C 0.640625 -0.03125 1.09375 -0.03125 1.21875 -0.03125 C 1.390625 -0.03125 1.8125 -0.03125 2.125 0 Z M 2.125 0 "/>
</g>
<g id="glyph-1778740520414658--10-2">
<path d="M 3.984375 -1.6875 C 3.984375 -2.6875 3.15625 -3.546875 2.109375 -3.546875 C 1.0625 -3.546875 0.234375 -2.6875 0.234375 -1.6875 C 0.234375 -0.703125 1.09375 0.078125 2.109375 0.078125 C 3.140625 0.078125 3.984375 -0.703125 3.984375 -1.6875 Z M 3.265625 -1.765625 C 3.265625 -1.40625 3.25 -0.96875 3.03125 -0.625 C 2.8125 -0.3125 2.453125 -0.171875 2.109375 -0.171875 C 1.671875 -0.171875 1.34375 -0.375 1.171875 -0.65625 C 0.96875 -0.984375 0.953125 -1.375 0.953125 -1.765625 C 0.953125 -2.0625 0.953125 -2.546875 1.1875 -2.890625 C 1.40625 -3.171875 1.734375 -3.328125 2.109375 -3.328125 C 2.515625 -3.328125 2.859375 -3.125 3.046875 -2.84375 C 3.265625 -2.515625 3.265625 -2.078125 3.265625 -1.765625 Z M 3.265625 -1.765625 "/>
</g>
<g id="glyph-1778740520414658--10-3">
<path d="M 3.5 -0.953125 C 3.5 -1.046875 3.40625 -1.046875 3.375 -1.046875 C 3.328125 -1.046875 3.28125 -1.046875 3.265625 -0.96875 C 3.203125 -0.796875 2.984375 -0.171875 2.1875 -0.171875 C 1.6875 -0.171875 0.984375 -0.546875 0.984375 -1.71875 C 0.984375 -2.875 1.578125 -3.296875 2.15625 -3.296875 C 2.234375 -3.296875 2.640625 -3.296875 2.921875 -3.15625 C 2.703125 -3.078125 2.671875 -2.90625 2.671875 -2.8125 C 2.671875 -2.59375 2.828125 -2.4375 3.046875 -2.4375 C 3.25 -2.4375 3.421875 -2.578125 3.421875 -2.8125 C 3.421875 -3.3125 2.875 -3.546875 2.125 -3.546875 C 1.03125 -3.546875 0.28125 -2.671875 0.28125 -1.71875 C 0.28125 -0.703125 1.109375 0.078125 2.109375 0.078125 C 3.234375 0.078125 3.5 -0.859375 3.5 -0.953125 Z M 3.5 -0.953125 "/>
</g>
<g id="glyph-1778740520414658--10-4">
<path d="M 4.3125 0 L 4.3125 -0.265625 C 3.984375 -0.265625 3.828125 -0.296875 3.546875 -0.671875 L 2.390625 -2.15625 L 3.0625 -2.703125 C 3.59375 -3.125 3.921875 -3.15625 4.125 -3.171875 L 4.125 -3.421875 C 3.9375 -3.40625 3.828125 -3.40625 3.5 -3.40625 C 3.109375 -3.40625 3 -3.40625 2.640625 -3.421875 L 2.640625 -3.171875 C 2.796875 -3.15625 2.828125 -3.046875 2.828125 -3 C 2.828125 -2.84375 2.671875 -2.703125 2.609375 -2.65625 L 1.46875 -1.734375 L 1.46875 -5.515625 L 0.28125 -5.4375 L 0.28125 -5.171875 C 0.8125 -5.171875 0.875 -5.109375 0.875 -4.71875 L 0.875 -0.625 C 0.875 -0.265625 0.78125 -0.265625 0.28125 -0.265625 L 0.28125 0 C 0.59375 -0.03125 1.015625 -0.03125 1.15625 -0.03125 C 1.3125 -0.03125 1.71875 -0.03125 2.03125 0 L 2.03125 -0.265625 C 1.53125 -0.265625 1.4375 -0.265625 1.4375 -0.625 L 1.4375 -1.390625 L 1.96875 -1.828125 C 2 -1.828125 2.203125 -1.546875 2.328125 -1.390625 C 2.453125 -1.21875 2.578125 -1.0625 2.703125 -0.90625 C 2.8125 -0.75 2.984375 -0.546875 2.984375 -0.421875 C 2.984375 -0.28125 2.828125 -0.265625 2.734375 -0.265625 L 2.734375 0 C 3.078125 -0.03125 3.4375 -0.03125 3.578125 -0.03125 C 3.875 -0.03125 4.03125 -0.03125 4.3125 0 Z M 4.3125 0 "/>
</g>
<g id="glyph-1778740520414658--10-5">
<path d="M 3.5625 0 L 3.5625 -0.265625 L 3.28125 -0.265625 C 2.515625 -0.265625 2.5 -0.359375 2.5 -0.65625 L 2.5 -5.0625 C 2.5 -5.28125 2.484375 -5.28125 2.265625 -5.28125 C 1.9375 -4.96875 1.515625 -4.78125 0.765625 -4.78125 L 0.765625 -4.515625 C 0.984375 -4.515625 1.40625 -4.515625 1.875 -4.734375 L 1.875 -0.65625 C 1.875 -0.359375 1.84375 -0.265625 1.09375 -0.265625 L 0.8125 -0.265625 L 0.8125 0 C 1.140625 -0.03125 1.828125 -0.03125 2.171875 -0.03125 C 2.53125 -0.03125 3.234375 -0.03125 3.5625 0 Z M 3.5625 0 "/>
</g>
<g id="glyph-1778740520414658--10-6">
<path d="M 2.8125 -1 L 2.8125 -1.4375 L 2.5625 -1.4375 L 2.5625 -1.015625 C 2.5625 -0.46875 2.3125 -0.171875 2.015625 -0.171875 C 1.484375 -0.171875 1.484375 -0.84375 1.484375 -0.984375 L 1.484375 -3.171875 L 2.671875 -3.171875 L 2.671875 -3.421875 L 1.484375 -3.421875 L 1.484375 -4.890625 L 1.234375 -4.890625 C 1.21875 -4.171875 0.90625 -3.40625 0.15625 -3.390625 L 0.15625 -3.171875 L 0.875 -3.171875 L 0.875 -1 C 0.875 -0.0625 1.59375 0.078125 1.953125 0.078125 C 2.484375 0.078125 2.8125 -0.390625 2.8125 -1 Z M 2.8125 -1 "/>
</g>
<g id="glyph-1778740520414658--10-7">
<path d="M 3.046875 -3 C 3.046875 -3.28125 2.796875 -3.5 2.453125 -3.5 C 1.9375 -3.5 1.578125 -3.125 1.421875 -2.671875 L 1.40625 -2.671875 L 1.40625 -3.5 L 0.28125 -3.421875 L 0.28125 -3.15625 C 0.8125 -3.15625 0.875 -3.109375 0.875 -2.71875 L 0.875 -0.625 C 0.875 -0.265625 0.78125 -0.265625 0.28125 -0.265625 L 0.28125 0 C 0.59375 -0.03125 1.03125 -0.03125 1.21875 -0.03125 C 1.6875 -0.03125 1.703125 -0.03125 2.21875 0 L 2.21875 -0.265625 L 2.0625 -0.265625 C 1.484375 -0.265625 1.46875 -0.34375 1.46875 -0.640625 L 1.46875 -1.8125 C 1.46875 -2.40625 1.703125 -3.265625 2.46875 -3.28125 C 2.421875 -3.25 2.34375 -3.1875 2.34375 -3 C 2.34375 -2.765625 2.53125 -2.640625 2.703125 -2.640625 C 2.890625 -2.640625 3.046875 -2.78125 3.046875 -3 Z M 3.046875 -3 "/>
</g>
<g id="glyph-1778740520414658--10-8">
<path d="M 4.46875 0 L 4.46875 -0.265625 C 3.921875 -0.265625 3.859375 -0.3125 3.859375 -0.703125 L 3.859375 -3.5 L 2.65625 -3.421875 L 2.65625 -3.15625 C 3.203125 -3.15625 3.265625 -3.109375 3.265625 -2.71875 L 3.265625 -1.328125 C 3.265625 -0.640625 2.84375 -0.140625 2.25 -0.140625 C 1.5625 -0.140625 1.53125 -0.484375 1.53125 -0.875 L 1.53125 -3.5 L 0.328125 -3.421875 L 0.328125 -3.15625 C 0.9375 -3.15625 0.9375 -3.140625 0.9375 -2.421875 L 0.9375 -1.234375 C 0.9375 -0.65625 0.9375 0.078125 2.203125 0.078125 C 2.953125 0.078125 3.234375 -0.5 3.28125 -0.5625 L 3.28125 0.078125 Z M 4.46875 0 "/>
</g>
<g id="glyph-1778740520414658--10-9">
<path d="M 4.46875 0 L 4.46875 -0.265625 C 3.953125 -0.265625 3.859375 -0.265625 3.859375 -0.625 L 3.859375 -2.40625 C 3.859375 -3.078125 3.5625 -3.5 2.734375 -3.5 C 2.03125 -3.5 1.65625 -3.0625 1.515625 -2.8125 L 1.515625 -5.515625 L 0.328125 -5.4375 L 0.328125 -5.171875 C 0.859375 -5.171875 0.9375 -5.109375 0.9375 -4.71875 L 0.9375 -0.625 C 0.9375 -0.265625 0.828125 -0.265625 0.328125 -0.265625 L 0.328125 0 C 0.671875 -0.03125 1.015625 -0.03125 1.234375 -0.03125 C 1.46875 -0.03125 1.796875 -0.03125 2.140625 0 L 2.140625 -0.265625 C 1.625 -0.265625 1.53125 -0.265625 1.53125 -0.625 L 1.53125 -2.0625 C 1.53125 -2.890625 2.171875 -3.28125 2.65625 -3.28125 C 3.140625 -3.28125 3.265625 -2.9375 3.265625 -2.4375 L 3.265625 -0.625 C 3.265625 -0.265625 3.171875 -0.265625 2.65625 -0.265625 L 2.65625 0 C 3 -0.03125 3.34375 -0.03125 3.5625 -0.03125 C 3.796875 -0.03125 4.125 -0.03125 4.46875 0 Z M 4.46875 0 "/>
</g>
<g id="glyph-1778740520414658--10-10">
<path d="M 5.796875 -3.578125 L 5.625 -5.375 L 0.46875 -5.375 L 0.296875 -3.578125 L 0.546875 -3.578125 C 0.65625 -4.921875 0.84375 -5.109375 2.0625 -5.109375 C 2.21875 -5.109375 2.453125 -5.109375 2.515625 -5.09375 C 2.671875 -5.0625 2.6875 -4.984375 2.6875 -4.78125 L 2.6875 -0.65625 C 2.6875 -0.375 2.6875 -0.265625 1.859375 -0.265625 L 1.546875 -0.265625 L 1.546875 0 C 1.84375 -0.03125 2.703125 -0.03125 3.046875 -0.03125 C 3.390625 -0.03125 4.25 -0.03125 4.546875 0 L 4.546875 -0.265625 L 4.234375 -0.265625 C 3.40625 -0.265625 3.40625 -0.375 3.40625 -0.65625 L 3.40625 -4.78125 C 3.40625 -4.96875 3.40625 -5.0625 3.578125 -5.09375 C 3.65625 -5.109375 3.875 -5.109375 4.03125 -5.109375 C 5.25 -5.109375 5.4375 -4.921875 5.546875 -3.578125 Z M 5.796875 -3.578125 "/>
</g>
<g id="glyph-1778740520414658--10-11">
<path d="M 5.96875 0 L 5.96875 -0.265625 L 5.796875 -0.265625 C 5.1875 -0.265625 5.171875 -0.34375 5.171875 -0.640625 L 5.171875 -4.78125 C 5.171875 -5.078125 5.1875 -5.171875 5.796875 -5.171875 L 5.96875 -5.171875 L 5.96875 -5.4375 L 4.796875 -5.40625 L 3.640625 -5.4375 L 3.640625 -5.171875 L 3.8125 -5.171875 C 4.421875 -5.171875 4.4375 -5.078125 4.4375 -4.78125 L 4.4375 -2.953125 L 1.890625 -2.953125 L 1.890625 -4.78125 C 1.890625 -5.078125 1.90625 -5.171875 2.515625 -5.171875 L 2.6875 -5.171875 L 2.6875 -5.4375 L 1.515625 -5.40625 L 0.34375 -5.4375 L 0.34375 -5.171875 L 0.53125 -5.171875 C 1.140625 -5.171875 1.15625 -5.078125 1.15625 -4.78125 L 1.15625 -0.640625 C 1.15625 -0.34375 1.140625 -0.265625 0.53125 -0.265625 L 0.34375 -0.265625 L 0.34375 0 L 1.515625 -0.03125 L 2.6875 0 L 2.6875 -0.265625 L 2.515625 -0.265625 C 1.90625 -0.265625 1.890625 -0.34375 1.890625 -0.640625 L 1.890625 -2.703125 L 4.4375 -2.703125 L 4.4375 -0.640625 C 4.4375 -0.34375 4.421875 -0.265625 3.8125 -0.265625 L 3.640625 -0.265625 L 3.640625 0 L 4.796875 -0.03125 Z M 5.96875 0 "/>
</g>
<g id="glyph-1778740520414658--10-12">
<path d="M 3.796875 -1.421875 L 3.546875 -1.421875 C 3.515625 -1.265625 3.453125 -0.859375 3.359375 -0.71875 C 3.3125 -0.65625 2.71875 -0.65625 2.578125 -0.65625 L 1.171875 -0.65625 L 2.25 -1.625 C 2.375 -1.734375 2.703125 -2 2.828125 -2.109375 C 3.328125 -2.5625 3.796875 -3 3.796875 -3.734375 C 3.796875 -4.671875 3 -5.28125 2 -5.28125 C 1.046875 -5.28125 0.421875 -4.5625 0.421875 -3.859375 C 0.421875 -3.46875 0.734375 -3.40625 0.84375 -3.40625 C 1.015625 -3.40625 1.25 -3.53125 1.25 -3.828125 C 1.25 -4.25 0.859375 -4.25 0.765625 -4.25 C 1 -4.828125 1.53125 -5.03125 1.921875 -5.03125 C 2.65625 -5.03125 3.03125 -4.390625 3.03125 -3.734375 C 3.03125 -2.90625 2.453125 -2.296875 1.515625 -1.34375 L 0.515625 -0.296875 C 0.421875 -0.21875 0.421875 -0.203125 0.421875 0 L 3.5625 0 Z M 3.796875 -1.421875 "/>
</g>
<g id="glyph-1778740520414658--10-13">
<path d="M 3.859375 -1.359375 C 3.859375 -2.015625 3.34375 -2.625 2.53125 -2.796875 C 3.15625 -3.015625 3.625 -3.5625 3.625 -4.203125 C 3.625 -4.828125 2.90625 -5.28125 2.078125 -5.28125 C 1.234375 -5.28125 0.59375 -4.828125 0.59375 -4.21875 C 0.59375 -3.921875 0.78125 -3.796875 1 -3.796875 C 1.234375 -3.796875 1.40625 -3.984375 1.40625 -4.203125 C 1.40625 -4.5 1.140625 -4.609375 0.96875 -4.625 C 1.296875 -5.0625 1.921875 -5.078125 2.0625 -5.078125 C 2.265625 -5.078125 2.875 -5.015625 2.875 -4.203125 C 2.875 -3.640625 2.640625 -3.3125 2.53125 -3.1875 C 2.296875 -2.9375 2.109375 -2.921875 1.625 -2.890625 C 1.46875 -2.875 1.40625 -2.875 1.40625 -2.765625 C 1.40625 -2.65625 1.484375 -2.65625 1.609375 -2.65625 L 2.015625 -2.65625 C 2.640625 -2.65625 3.03125 -2.1875 3.03125 -1.359375 C 3.03125 -0.359375 2.46875 -0.078125 2.046875 -0.078125 C 1.609375 -0.078125 1.015625 -0.234375 0.734375 -0.65625 C 1.03125 -0.65625 1.21875 -0.828125 1.21875 -1.09375 C 1.21875 -1.359375 1.046875 -1.53125 0.78125 -1.53125 C 0.578125 -1.53125 0.34375 -1.40625 0.34375 -1.078125 C 0.34375 -0.328125 1.15625 0.171875 2.0625 0.171875 C 3.125 0.171875 3.859375 -0.5625 3.859375 -1.359375 Z M 3.859375 -1.359375 "/>
</g>
</g>
<clipPath id="clip-1778740520414658--0">
<path clip-rule="nonzero" d="M 0.109375 0 L 439.949219 0 L 439.949219 303.363281 L 0.109375 303.363281 Z M 0.109375 0 "/>
</clipPath>
<clipPath id="clip-1778740520414658--1">
<path clip-rule="nonzero" d="M 54.695312 86 L 435.175781 86 L 435.175781 267.867188 L 54.695312 267.867188 Z M 54.695312 86 "/>
</clipPath>
<clipPath id="clip-1778740520414658--2">
<path clip-rule="nonzero" d="M 54.695312 90 L 381 90 L 381 199 L 54.695312 199 Z M 54.695312 90 "/>
</clipPath>
<clipPath id="clip-1778740520414658--3">
<path clip-rule="nonzero" d="M 54.695312 37 L 435.175781 37 L 435.175781 259 L 54.695312 259 Z M 54.695312 37 "/>
</clipPath>
<clipPath id="clip-1778740520414658--4">
<path clip-rule="nonzero" d="M 54.695312 37 L 435.175781 37 L 435.175781 238 L 54.695312 238 Z M 54.695312 37 "/>
</clipPath>
<clipPath id="clip-1778740520414658--5">
<path clip-rule="nonzero" d="M 54.695312 31.003906 L 435.175781 31.003906 L 435.175781 137 L 54.695312 137 Z M 54.695312 31.003906 "/>
</clipPath>
</defs>
<g clip-path="url(#clip-1778740520414658--0)">
<path fill-rule="nonzero" fill="rgb(100%, 100%, 100%)" fill-opacity="1" d="M 0.105469 303.367188 L 0.105469 0 L 439.953125 0 L 439.953125 303.367188 Z M 0.105469 303.367188 "/>
</g>
<path fill-rule="nonzero" fill="rgb(100%, 100%, 100%)" fill-opacity="1" d="M 54.695312 267.867188 L 435.175781 267.867188 L 435.175781 31.003906 L 54.695312 31.003906 Z M 54.695312 267.867188 "/>
<path fill="none" stroke-width="0.49814" stroke-linecap="butt" stroke-linejoin="miter" stroke="rgb(0%, 0%, 0%)" stroke-opacity="0.1" stroke-miterlimit="10" d="M -0.000632113 -1398.724296 L -0.000632113 -1161.222486 M 239.118809 -1398.724296 L 239.118809 -1161.222486 " transform="matrix(0.997311, 0, 0, -0.997311, 65.465474, -1127.096604)"/>
<path fill="none" stroke-width="0.49814" stroke-linecap="butt" stroke-linejoin="miter" stroke="rgb(0%, 0%, 0%)" stroke-opacity="0.1" stroke-miterlimit="10" d="M -10.799196 -1342.212989 L 370.706962 -1342.212989 M -10.799196 -1238.966659 L 370.706962 -1238.966659 " transform="matrix(0.997311, 0, 0, -0.997311, 65.465474, -1127.096604)"/>
<path fill="none" stroke-width="0.19925" stroke-linecap="butt" stroke-linejoin="miter" stroke="rgb(0%, 0%, 0%)" stroke-opacity="1" stroke-miterlimit="10" d="M -0.000632113 -1398.724296 L -0.000632113 -1394.47459 M 239.118809 -1398.724296 L 239.118809 -1394.47459 " transform="matrix(0.997311, 0, 0, -0.997311, 65.465474, -1127.096604)"/>
<path fill="none" stroke-width="0.19925" stroke-linecap="butt" stroke-linejoin="miter" stroke="rgb(0%, 0%, 0%)" stroke-opacity="1" stroke-miterlimit="10" d="M -10.799196 -1396.197973 L -7.963447 -1396.197973 M -10.799196 -1383.300015 L -7.963447 -1383.300015 M -10.799196 -1373.292642 L -7.963447 -1373.292642 M -10.799196 -1365.118321 L -7.963447 -1365.118321 M -10.799196 -1358.205204 L -7.963447 -1358.205204 M -10.799196 -1352.220363 L -7.963447 -1352.220363 M -10.799196 -1346.936627 L -7.963447 -1346.936627 M -10.799196 -1342.212989 L -7.963447 -1342.212989 M -10.799196 -1311.133337 L -7.963447 -1311.133337 M -10.799196 -1292.951643 L -7.963447 -1292.951643 M -10.799196 -1280.053685 L -7.963447 -1280.053685 M -10.799196 -1270.046311 L -7.963447 -1270.046311 M -10.799196 -1261.871991 L -7.963447 -1261.871991 M -10.799196 -1254.958873 L -7.963447 -1254.958873 M -10.799196 -1248.974033 L -7.963447 -1248.974033 M -10.799196 -1243.690296 L -7.963447 -1243.690296 M -10.799196 -1238.966659 L -7.963447 -1238.966659 M -10.799196 -1207.887007 L -7.963447 -1207.887007 M -10.799196 -1189.705312 L -7.963447 -1189.705312 M -10.799196 -1176.807355 L -7.963447 -1176.807355 M -10.799196 -1166.799981 L -7.963447 -1166.799981 " transform="matrix(0.997311, 0, 0, -0.997311, 65.465474, -1127.096604)"/>
<path fill="none" stroke-width="0.19925" stroke-linecap="butt" stroke-linejoin="miter" stroke="rgb(0%, 0%, 0%)" stroke-opacity="1" stroke-miterlimit="10" d="M -10.799196 -1342.212989 L -6.545572 -1342.212989 M -10.799196 -1238.966659 L -6.545572 -1238.966659 " transform="matrix(0.997311, 0, 0, -0.997311, 65.465474, -1127.096604)"/>
<path fill="none" stroke-width="0.99628" stroke-linecap="butt" stroke-linejoin="miter" stroke="rgb(0%, 0%, 0%)" stroke-opacity="1" stroke-miterlimit="10" d="M -10.799196 -1398.724296 L 370.706962 -1398.724296 " transform="matrix(0.997311, 0, 0, -0.997311, 65.465474, -1127.096604)"/>
<path fill="none" stroke-width="0.99628" stroke-linecap="butt" stroke-linejoin="miter" stroke="rgb(0%, 0%, 0%)" stroke-opacity="1" stroke-miterlimit="10" d="M -10.799196 -1398.724296 L -10.799196 -1161.222486 " transform="matrix(0.997311, 0, 0, -0.997311, 65.465474, -1127.096604)"/>
<g fill="rgb(0%, 0%, 0%)" fill-opacity="1">
<use xlink:href="#glyph-1778740520414658--0-0" x="59.172439" y="278.00556"/>
<use xlink:href="#glyph-1778740520414658--0-1" x="63.395574" y="278.00556"/>
</g>
<g fill="rgb(0%, 0%, 0%)" fill-opacity="1">
<use xlink:href="#glyph-1778740520414658--1-0" x="67.61867" y="275.20112"/>
</g>
<g fill="rgb(0%, 0%, 0%)" fill-opacity="1">
<use xlink:href="#glyph-1778740520414658--0-0" x="297.64557" y="278.00556"/>
<use xlink:href="#glyph-1778740520414658--0-1" x="301.868704" y="278.00556"/>
</g>
<g fill="rgb(0%, 0%, 0%)" fill-opacity="1">
<use xlink:href="#glyph-1778740520414658--1-1" x="306.090803" y="275.20112"/>
</g>
<g fill="rgb(0%, 0%, 0%)" fill-opacity="1">
<use xlink:href="#glyph-1778740520414658--0-0" x="25.403472" y="214.930596"/>
<use xlink:href="#glyph-1778740520414658--0-1" x="29.626607" y="214.930596"/>
</g>
<g fill="rgb(0%, 0%, 0%)" fill-opacity="1">
<use xlink:href="#glyph-1778740520414658--2-0" x="33.848706" y="212.125159"/>
</g>
<g fill="rgb(0%, 0%, 0%)" fill-opacity="1">
<use xlink:href="#glyph-1778740520414658--2-1" x="40.251963" y="212.125159"/>
<use xlink:href="#glyph-1778740520414658--2-0" x="44.275385" y="212.125159"/>
</g>
<g clip-path="url(#clip-1778740520414658--1)">
<path fill="none" stroke-width="1.49442" stroke-linecap="butt" stroke-linejoin="miter" stroke="rgb(0%, 60.559082%, 97.869873%)" stroke-opacity="1" stroke-miterlimit="10" d="M -0.000632113 -1238.453561 L 35.986746 -1255.381886 L 71.981957 -1270.782666 L 101.032717 -1282.270583 L 129.02203 -1294.800363 L 162.80426 -1311.462347 L 196.488571 -1329.710626 L 228.81376 -1339.009063 L 261.871386 -1349.607871 L 294.400247 -1362.435326 L 327.160198 -1368.733509 L 359.908398 -1378.932805 " transform="matrix(0.997311, 0, 0, -0.997311, 65.465474, -1127.096604)"/>
</g>
<g clip-path="url(#clip-1778740520414658--2)">
<path fill="none" stroke-width="1.49442" stroke-linecap="butt" stroke-linejoin="miter" stroke="rgb(88.88855%, 43.559265%, 27.809143%)" stroke-opacity="1" stroke-dasharray="2.98883 2.98883" stroke-miterlimit="10" d="M -0.000632113 -1242.233254 L 35.986746 -1259.674677 L 71.981957 -1275.897981 L 101.032717 -1285.082831 L 129.02203 -1308.042998 L 261.871386 -1301.505891 L 294.400247 -1303.229274 " transform="matrix(0.997311, 0, 0, -0.997311, 65.465474, -1127.096604)"/>
</g>
<g clip-path="url(#clip-1778740520414658--3)">
<path fill="none" stroke-width="1.49442" stroke-linecap="butt" stroke-linejoin="miter" stroke="rgb(24.21875%, 64.329529%, 30.439758%)" stroke-opacity="1" stroke-miterlimit="10" d="M -0.000632113 -1189.133463 L 35.986746 -1205.493854 L 71.981957 -1220.687045 L 101.032717 -1232.813397 L 129.02203 -1244.62249 L 162.80426 -1261.962077 L 196.488571 -1274.421355 L 228.81376 -1286.684794 L 261.871386 -1302.731843 L 294.400247 -1322.868011 L 327.160198 -1342.209073 L 359.908398 -1368.678674 " transform="matrix(0.997311, 0, 0, -0.997311, 65.465474, -1127.096604)"/>
</g>
<g clip-path="url(#clip-1778740520414658--4)">
<path fill="none" stroke-width="1.49442" stroke-linecap="butt" stroke-linejoin="miter" stroke="rgb(76.438904%, 44.40918%, 82.429504%)" stroke-opacity="1" stroke-dasharray="2.98883 2.98883" stroke-miterlimit="10" d="M -0.000632113 -1188.741785 L 35.986746 -1205.623108 L 71.981957 -1220.561708 L 101.032717 -1232.703727 L 129.02203 -1243.25945 L 162.80426 -1259.251665 L 196.488571 -1270.477157 L 228.81376 -1283.896047 L 261.871386 -1347.077631 L 327.160198 -1291.271344 L 359.908398 -1296.010648 " transform="matrix(0.997311, 0, 0, -0.997311, 65.465474, -1127.096604)"/>
</g>
<g clip-path="url(#clip-1778740520414658--5)">
<path fill="none" stroke-width="1.49442" stroke-linecap="butt" stroke-linejoin="miter" stroke="rgb(67.549133%, 55.569458%, 9.41925%)" stroke-opacity="1" stroke-miterlimit="10" d="M -0.000632113 -1207.54233 L 35.986746 -1222.179338 L 71.981957 -1235.958572 L 101.032717 -1244.183811 L 129.02203 -1245.492015 L 162.80426 -1241.203141 L 196.488571 -1231.665781 L 228.81376 -1220.640044 L 261.871386 -1216.543092 L 294.400247 -1207.746003 L 327.160198 -1193.723929 L 359.908398 -1181.02181 " transform="matrix(0.997311, 0, 0, -0.997311, 65.465474, -1127.096604)"/>
<path fill="none" stroke-width="1.49442" stroke-linecap="butt" stroke-linejoin="miter" stroke="rgb(0%, 66.578674%, 68.099976%)" stroke-opacity="1" stroke-dasharray="2.98883 2.98883" stroke-miterlimit="10" d="M -0.000632113 -1207.413077 L 35.986746 -1221.168809 L 71.981957 -1235.10863 L 101.032717 -1244.532404 L 129.02203 -1245.511599 L 162.80426 -1240.384534 L 196.488571 -1230.71792 L 228.81376 -1220.201364 L 261.871386 -1216.883851 L 294.400247 -1208.047595 L 327.160198 -1193.610343 L 359.908398 -1181.013977 " transform="matrix(0.997311, 0, 0, -0.997311, 65.465474, -1127.096604)"/>
</g>
<g fill="rgb(0%, 0%, 0%)" fill-opacity="1">
<use xlink:href="#glyph-1778740520414658--3-0" x="233.884455" y="293.025071"/>
</g>
<g fill="rgb(0%, 0%, 0%)" fill-opacity="1">
<use xlink:href="#glyph-1778740520414658--4-0" x="243.43471" y="293.025071"/>
<use xlink:href="#glyph-1778740520414658--4-1" x="247.598825" y="293.025071"/>
<use xlink:href="#glyph-1778740520414658--4-2" x="251.817588" y="293.025071"/>
</g>
<g fill="rgb(0%, 0%, 0%)" fill-opacity="1">
<use xlink:href="#glyph-1778740520414658--5-0" x="15.861196" y="166.822285"/>
</g>
<g fill="rgb(0%, 0%, 0%)" fill-opacity="1">
<use xlink:href="#glyph-1778740520414658--6-0" x="15.861196" y="160.215097"/>
</g>
<g fill="rgb(0%, 0%, 0%)" fill-opacity="1">
<use xlink:href="#glyph-1778740520414658--5-1" x="15.861196" y="152.192723"/>
</g>
<g fill="rgb(0%, 0%, 0%)" fill-opacity="1">
<use xlink:href="#glyph-1778740520414658--7-0" x="15.861196" y="146.468155"/>
</g>
<g fill="rgb(0%, 0%, 0%)" fill-opacity="1">
<use xlink:href="#glyph-1778740520414658--5-2" x="15.861196" y="142.23756"/>
</g>
<g fill="rgb(0%, 0%, 0%)" fill-opacity="1">
<use xlink:href="#glyph-1778740520414658--7-1" x="15.861196" y="136.249702"/>
</g>
<g fill="rgb(0%, 0%, 0%)" fill-opacity="1">
<use xlink:href="#glyph-1778740520414658--8-0" x="81.312754" y="18.026405"/>
<use xlink:href="#glyph-1778740520414658--8-1" x="91.147266" y="18.026405"/>
<use xlink:href="#glyph-1778740520414658--8-2" x="98.714415" y="18.026405"/>
<use xlink:href="#glyph-1778740520414658--8-3" x="104.014202" y="18.026405"/>
<use xlink:href="#glyph-1778740520414658--8-3" x="110.06514" y="18.026405"/>
<use xlink:href="#glyph-1778740520414658--8-4" x="116.116077" y="18.026405"/>
<use xlink:href="#glyph-1778740520414658--8-5" x="120.650803" y="18.026405"/>
<use xlink:href="#glyph-1778740520414658--8-6" x="126.70174" y="18.026405"/>
<use xlink:href="#glyph-1778740520414658--8-2" x="133.517739" y="18.026405"/>
<use xlink:href="#glyph-1778740520414658--8-7" x="138.817526" y="18.026405"/>
<use xlink:href="#glyph-1778740520414658--8-3" x="146.384675" y="18.026405"/>
<use xlink:href="#glyph-1778740520414658--8-2" x="152.435613" y="18.026405"/>
<use xlink:href="#glyph-1778740520414658--8-3" x="157.735399" y="18.026405"/>
<use xlink:href="#glyph-1778740520414658--8-8" x="163.786337" y="18.026405"/>
</g>
<g fill="rgb(0%, 0%, 0%)" fill-opacity="1">
<use xlink:href="#glyph-1778740520414658--8-1" x="175.888212" y="18.026405"/>
<use xlink:href="#glyph-1778740520414658--8-9" x="183.455361" y="18.026405"/>
<use xlink:href="#glyph-1778740520414658--8-10" x="190.27136" y="18.026405"/>
<use xlink:href="#glyph-1778740520414658--8-11" x="195.571147" y="18.026405"/>
</g>
<g fill="rgb(0%, 0%, 0%)" fill-opacity="1">
<use xlink:href="#glyph-1778740520414658--8-2" x="205.391749" y="18.026405"/>
<use xlink:href="#glyph-1778740520414658--8-3" x="210.691535" y="18.026405"/>
<use xlink:href="#glyph-1778740520414658--8-5" x="216.742473" y="18.026405"/>
<use xlink:href="#glyph-1778740520414658--8-6" x="222.793411" y="18.026405"/>
</g>
<g fill="rgb(0%, 0%, 0%)" fill-opacity="1">
<use xlink:href="#glyph-1778740520414658--8-12" x="229.247744" y="18.026405"/>
</g>
<g fill="rgb(0%, 0%, 0%)" fill-opacity="1">
<use xlink:href="#glyph-1778740520414658--8-3" x="236.063743" y="18.026405"/>
<use xlink:href="#glyph-1778740520414658--8-2" x="242.11468" y="18.026405"/>
<use xlink:href="#glyph-1778740520414658--8-3" x="247.414467" y="18.026405"/>
<use xlink:href="#glyph-1778740520414658--8-8" x="253.465404" y="18.026405"/>
</g>
<g fill="rgb(0%, 0%, 0%)" fill-opacity="1">
<use xlink:href="#glyph-1778740520414658--8-12" x="265.553369" y="18.026405"/>
<use xlink:href="#glyph-1778740520414658--8-13" x="272.744943" y="18.026405"/>
</g>
<g fill="rgb(0%, 0%, 0%)" fill-opacity="1">
<use xlink:href="#glyph-1778740520414658--8-14" x="282.649007" y="18.026405"/>
<use xlink:href="#glyph-1778740520414658--8-2" x="289.465005" y="18.026405"/>
<use xlink:href="#glyph-1778740520414658--8-6" x="294.764792" y="18.026405"/>
<use xlink:href="#glyph-1778740520414658--8-15" x="301.580791" y="18.026405"/>
<use xlink:href="#glyph-1778740520414658--8-7" x="309.14794" y="18.026405"/>
<use xlink:href="#glyph-1778740520414658--8-8" x="316.71509" y="18.026405"/>
<use xlink:href="#glyph-1778740520414658--8-4" x="324.282239" y="18.026405"/>
<use xlink:href="#glyph-1778740520414658--8-10" x="328.816965" y="18.026405"/>
<use xlink:href="#glyph-1778740520414658--8-2" x="334.116751" y="18.026405"/>
<use xlink:href="#glyph-1778740520414658--8-15" x="339.416538" y="18.026405"/>
<use xlink:href="#glyph-1778740520414658--8-10" x="346.983687" y="18.026405"/>
<use xlink:href="#glyph-1778740520414658--8-1" x="352.283474" y="18.026405"/>
</g>
<g fill="rgb(0%, 0%, 0%)" fill-opacity="1">
<use xlink:href="#glyph-1778740520414658--9-0" x="364.394629" y="18.026405"/>
</g>
<g fill="rgb(0%, 0%, 0%)" fill-opacity="1">
<use xlink:href="#glyph-1778740520414658--8-16" x="372.869782" y="18.026405"/>
<use xlink:href="#glyph-1778740520414658--8-17" x="383.07987" y="18.026405"/>
<use xlink:href="#glyph-1778740520414658--8-18" x="390.271444" y="18.026405"/>
</g>
<g fill="rgb(0%, 0%, 0%)" fill-opacity="1">
<use xlink:href="#glyph-1778740520414658--9-1" x="395.571583" y="18.026405"/>
</g>
<g fill="rgb(0%, 0%, 0%)" fill-opacity="1">
<use xlink:href="#glyph-1778740520414658--8-19" x="403.253874" y="18.026405"/>
</g>
<path fill-rule="nonzero" fill="rgb(100%, 100%, 100%)" fill-opacity="1" stroke-width="0.99628" stroke-linecap="butt" stroke-linejoin="miter" stroke="rgb(0%, 0%, 0%)" stroke-opacity="1" stroke-miterlimit="10" d="M 284.016862 -1237.000435 L 362.575726 -1237.000435 L 362.575726 -1166.470971 L 284.016862 -1166.470971 Z M 284.016862 -1237.000435 " transform="matrix(0.997311, 0, 0, -0.997311, 65.465474, -1127.096604)"/>
<path fill="none" stroke-width="1.49442" stroke-linecap="butt" stroke-linejoin="miter" stroke="rgb(0%, 60.559082%, 97.869873%)" stroke-opacity="1" stroke-miterlimit="10" d="M -0.000446163 -0.000106475 L 17.010131 -0.000106475 " transform="matrix(0.997311, 0, 0, -0.997311, 352.441851, 43.742081)"/>
<g fill="rgb(0%, 0%, 0%)" fill-opacity="1">
<use xlink:href="#glyph-1778740520414658--10-0" x="372.135761" y="45.795546"/>
<use xlink:href="#glyph-1778740520414658--10-1" x="378.2324" y="45.795546"/>
<use xlink:href="#glyph-1778740520414658--10-2" x="380.577261" y="45.795546"/>
</g>
<g fill="rgb(0%, 0%, 0%)" fill-opacity="1">
<use xlink:href="#glyph-1778740520414658--10-3" x="385.036472" y="45.795546"/>
</g>
<g fill="rgb(0%, 0%, 0%)" fill-opacity="1">
<use xlink:href="#glyph-1778740520414658--10-4" x="388.557738" y="45.795546"/>
</g>
<g fill="rgb(0%, 0%, 0%)" fill-opacity="1">
<use xlink:href="#glyph-1778740520414658--10-5" x="395.822834" y="45.795546"/>
</g>
<g fill="rgb(0%, 0%, 0%)" fill-opacity="1">
<use xlink:href="#glyph-1778740520414658--10-6" x="402.857417" y="45.795546"/>
<use xlink:href="#glyph-1778740520414658--10-7" x="406.140223" y="45.795546"/>
<use xlink:href="#glyph-1778740520414658--10-8" x="409.430978" y="45.795546"/>
<use xlink:href="#glyph-1778740520414658--10-6" x="414.1207" y="45.795546"/>
<use xlink:href="#glyph-1778740520414658--10-9" x="417.403506" y="45.795546"/>
</g>
<path fill="none" stroke-width="1.49442" stroke-linecap="butt" stroke-linejoin="miter" stroke="rgb(88.88855%, 43.559265%, 27.809143%)" stroke-opacity="1" stroke-dasharray="2.98883 2.98883" stroke-miterlimit="10" d="M -0.000446163 -0.00142846 L 17.010131 -0.00142846 " transform="matrix(0.997311, 0, 0, -0.997311, 352.441851, 54.803263)"/>
<g fill="rgb(0%, 0%, 0%)" fill-opacity="1">
<use xlink:href="#glyph-1778740520414658--10-0" x="372.493796" y="56.85573"/>
<use xlink:href="#glyph-1778740520414658--10-1" x="378.590435" y="56.85573"/>
<use xlink:href="#glyph-1778740520414658--10-2" x="380.935296" y="56.85573"/>
</g>
<g fill="rgb(0%, 0%, 0%)" fill-opacity="1">
<use xlink:href="#glyph-1778740520414658--10-3" x="385.394507" y="56.85573"/>
</g>
<g fill="rgb(0%, 0%, 0%)" fill-opacity="1">
<use xlink:href="#glyph-1778740520414658--10-4" x="388.907824" y="56.85573"/>
</g>
<g fill="rgb(0%, 0%, 0%)" fill-opacity="1">
<use xlink:href="#glyph-1778740520414658--10-5" x="396.180869" y="56.85573"/>
</g>
<g fill="rgb(0%, 0%, 0%)" fill-opacity="1">
<use xlink:href="#glyph-1778740520414658--10-10" x="403.215452" y="56.85573"/>
<use xlink:href="#glyph-1778740520414658--10-0" x="409.312092" y="56.85573"/>
<use xlink:href="#glyph-1778740520414658--10-11" x="415.408731" y="56.85573"/>
</g>
<path fill="none" stroke-width="1.49442" stroke-linecap="butt" stroke-linejoin="miter" stroke="rgb(24.21875%, 64.329529%, 30.439758%)" stroke-opacity="1" stroke-miterlimit="10" d="M -0.000446163 0.000166345 L 17.010131 0.000166345 " transform="matrix(0.997311, 0, 0, -0.997311, 352.441851, 65.863447)"/>
<g fill="rgb(0%, 0%, 0%)" fill-opacity="1">
<use xlink:href="#glyph-1778740520414658--10-0" x="372.135761" y="67.915914"/>
<use xlink:href="#glyph-1778740520414658--10-1" x="378.2324" y="67.915914"/>
<use xlink:href="#glyph-1778740520414658--10-2" x="380.577261" y="67.915914"/>
</g>
<g fill="rgb(0%, 0%, 0%)" fill-opacity="1">
<use xlink:href="#glyph-1778740520414658--10-3" x="385.036472" y="67.915914"/>
</g>
<g fill="rgb(0%, 0%, 0%)" fill-opacity="1">
<use xlink:href="#glyph-1778740520414658--10-4" x="388.557738" y="67.915914"/>
</g>
<g fill="rgb(0%, 0%, 0%)" fill-opacity="1">
<use xlink:href="#glyph-1778740520414658--10-12" x="395.822834" y="67.915914"/>
</g>
<g fill="rgb(0%, 0%, 0%)" fill-opacity="1">
<use xlink:href="#glyph-1778740520414658--10-6" x="402.857417" y="67.915914"/>
<use xlink:href="#glyph-1778740520414658--10-7" x="406.140223" y="67.915914"/>
<use xlink:href="#glyph-1778740520414658--10-8" x="409.430978" y="67.915914"/>
<use xlink:href="#glyph-1778740520414658--10-6" x="414.1207" y="67.915914"/>
<use xlink:href="#glyph-1778740520414658--10-9" x="417.403506" y="67.915914"/>
</g>
<path fill="none" stroke-width="1.49442" stroke-linecap="butt" stroke-linejoin="miter" stroke="rgb(76.438904%, 44.40918%, 82.429504%)" stroke-opacity="1" stroke-dasharray="2.98883 2.98883" stroke-miterlimit="10" d="M -0.000446163 0.00176114 L 17.010131 0.00176114 " transform="matrix(0.997311, 0, 0, -0.997311, 352.441851, 76.923631)"/>
<g fill="rgb(0%, 0%, 0%)" fill-opacity="1">
<use xlink:href="#glyph-1778740520414658--10-0" x="372.493796" y="78.977096"/>
<use xlink:href="#glyph-1778740520414658--10-1" x="378.590435" y="78.977096"/>
<use xlink:href="#glyph-1778740520414658--10-2" x="380.935296" y="78.977096"/>
</g>
<g fill="rgb(0%, 0%, 0%)" fill-opacity="1">
<use xlink:href="#glyph-1778740520414658--10-3" x="385.394507" y="78.977096"/>
</g>
<g fill="rgb(0%, 0%, 0%)" fill-opacity="1">
<use xlink:href="#glyph-1778740520414658--10-4" x="388.907824" y="78.977096"/>
</g>
<g fill="rgb(0%, 0%, 0%)" fill-opacity="1">
<use xlink:href="#glyph-1778740520414658--10-12" x="396.180869" y="78.977096"/>
</g>
<g fill="rgb(0%, 0%, 0%)" fill-opacity="1">
<use xlink:href="#glyph-1778740520414658--10-10" x="403.215452" y="78.977096"/>
<use xlink:href="#glyph-1778740520414658--10-0" x="409.312092" y="78.977096"/>
<use xlink:href="#glyph-1778740520414658--10-11" x="415.408731" y="78.977096"/>
</g>
<path fill="none" stroke-width="1.49442" stroke-linecap="butt" stroke-linejoin="miter" stroke="rgb(67.549133%, 55.569458%, 9.41925%)" stroke-opacity="1" stroke-miterlimit="10" d="M -0.000446163 0.000439164 L 17.010131 0.000439164 " transform="matrix(0.997311, 0, 0, -0.997311, 352.441851, 87.984813)"/>
<g fill="rgb(0%, 0%, 0%)" fill-opacity="1">
<use xlink:href="#glyph-1778740520414658--10-0" x="372.135761" y="90.03728"/>
<use xlink:href="#glyph-1778740520414658--10-1" x="378.2324" y="90.03728"/>
<use xlink:href="#glyph-1778740520414658--10-2" x="380.577261" y="90.03728"/>
</g>
<g fill="rgb(0%, 0%, 0%)" fill-opacity="1">
<use xlink:href="#glyph-1778740520414658--10-3" x="385.036472" y="90.03728"/>
</g>
<g fill="rgb(0%, 0%, 0%)" fill-opacity="1">
<use xlink:href="#glyph-1778740520414658--10-4" x="388.557738" y="90.03728"/>
</g>
<g fill="rgb(0%, 0%, 0%)" fill-opacity="1">
<use xlink:href="#glyph-1778740520414658--10-13" x="395.822834" y="90.03728"/>
</g>
<g fill="rgb(0%, 0%, 0%)" fill-opacity="1">
<use xlink:href="#glyph-1778740520414658--10-6" x="402.857417" y="90.03728"/>
<use xlink:href="#glyph-1778740520414658--10-7" x="406.140223" y="90.03728"/>
<use xlink:href="#glyph-1778740520414658--10-8" x="409.430978" y="90.03728"/>
<use xlink:href="#glyph-1778740520414658--10-6" x="414.1207" y="90.03728"/>
<use xlink:href="#glyph-1778740520414658--10-9" x="417.403506" y="90.03728"/>
</g>
<path fill="none" stroke-width="1.49442" stroke-linecap="butt" stroke-linejoin="miter" stroke="rgb(0%, 66.578674%, 68.099976%)" stroke-opacity="1" stroke-dasharray="2.98883 2.98883" stroke-miterlimit="10" d="M -0.000446163 -0.00188282 L 17.010131 -0.00188282 " transform="matrix(0.997311, 0, 0, -0.997311, 352.441851, 99.044997)"/>
<g fill="rgb(0%, 0%, 0%)" fill-opacity="1">
<use xlink:href="#glyph-1778740520414658--10-0" x="372.493796" y="101.097464"/>
<use xlink:href="#glyph-1778740520414658--10-1" x="378.590435" y="101.097464"/>
<use xlink:href="#glyph-1778740520414658--10-2" x="380.935296" y="101.097464"/>
</g>
<g fill="rgb(0%, 0%, 0%)" fill-opacity="1">
<use xlink:href="#glyph-1778740520414658--10-3" x="385.394507" y="101.097464"/>
</g>
<g fill="rgb(0%, 0%, 0%)" fill-opacity="1">
<use xlink:href="#glyph-1778740520414658--10-4" x="388.907824" y="101.097464"/>
</g>
<g fill="rgb(0%, 0%, 0%)" fill-opacity="1">
<use xlink:href="#glyph-1778740520414658--10-13" x="396.180869" y="101.097464"/>
</g>
<g fill="rgb(0%, 0%, 0%)" fill-opacity="1">
<use xlink:href="#glyph-1778740520414658--10-10" x="403.215452" y="101.097464"/>
<use xlink:href="#glyph-1778740520414658--10-0" x="409.312092" y="101.097464"/>
<use xlink:href="#glyph-1778740520414658--10-11" x="415.408731" y="101.097464"/>
</g>
</svg>

